<?xml version="1.0" encoding="UTF-8" standalone="no"?>
<!-- Created with Inkscape (http://www.inkscape.org/) -->

<svg
   width="73.763725mm"
   height="18.062637mm"
   viewBox="0 0 73.763725 18.062637"
   version="1.1"
   id="svg1"
   inkscape:export-filename="python-institute-regular.png"
   inkscape:export-xdpi="300"
   inkscape:export-ydpi="300"
   sodipodi:docname="python-institute-regular.svg"
   inkscape:version="1.3 (0e150ed6c4, 2023-07-21)"
   xmlns:inkscape="http://www.inkscape.org/namespaces/inkscape"
   xmlns:sodipodi="http://sodipodi.sourceforge.net/DTD/sodipodi-0.dtd"
   xmlns:xlink="http://www.w3.org/1999/xlink"
   xmlns="http://www.w3.org/2000/svg"
   xmlns:svg="http://www.w3.org/2000/svg">
  <sodipodi:namedview
     id="namedview1"
     pagecolor="#ffffff"
     bordercolor="#999999"
     borderopacity="1"
     inkscape:showpageshadow="0"
     inkscape:pageopacity="0"
     inkscape:pagecheckerboard="0"
     inkscape:deskcolor="#d1d1d1"
     inkscape:document-units="mm"
     inkscape:zoom="3.2999508"
     inkscape:cx="114.69868"
     inkscape:cy="47.424949"
     inkscape:current-layer="layer1" />
  <defs
     id="defs1">
    <linearGradient
       inkscape:collect="always"
       xlink:href="#linearGradient261"
       id="linearGradient870"
       gradientUnits="userSpaceOnUse"
       x1="29.640375"
       y1="516.23737"
       x2="264.44128"
       y2="272.35144" />
    <linearGradient
       id="linearGradient261"
       inkscape:collect="always">
      <stop
         style="stop-color:#1057a7;stop-opacity:1;"
         offset="0"
         id="stop261" />
      <stop
         style="stop-color:#0e4c93;stop-opacity:0;"
         offset="1"
         id="stop262" />
    </linearGradient>
    <inkscape:path-effect
       effect="bspline"
       id="path-effect867"
       is_visible="true"
       weight="42"
       steps="10"
       helper_size="0"
       apply_no_weight="true"
       apply_with_weight="true"
       only_selected="true"
       lpeversion="0"
       uniform="false" />
    <radialGradient
       inkscape:collect="always"
       xlink:href="#linearGradient158"
       id="radialGradient869"
       gradientUnits="userSpaceOnUse"
       gradientTransform="matrix(0.89655246,0.44293756,-0.51649933,1.0454493,176.54154,-100.69316)"
       cx="204.87482"
       cy="290.43295"
       fx="204.87482"
       fy="290.43295"
       r="225" />
    <linearGradient
       id="linearGradient158"
       inkscape:collect="always">
      <stop
         style="stop-color:#298af8;stop-opacity:1;"
         offset="0"
         id="stop158" />
      <stop
         style="stop-color:#0665d4;stop-opacity:1;"
         offset="1"
         id="stop159" />
    </linearGradient>
    <inkscape:path-effect
       effect="bspline"
       id="path-effect869"
       is_visible="true"
       weight="42"
       steps="10"
       helper_size="0"
       apply_no_weight="true"
       apply_with_weight="true"
       only_selected="true"
       lpeversion="0"
       uniform="false" />
    <linearGradient
       inkscape:collect="always"
       xlink:href="#linearGradient261"
       id="linearGradient3"
       x1="116.02642"
       y1="100.84894"
       x2="127.36546"
       y2="100.84894"
       gradientUnits="userSpaceOnUse" />
  </defs>
  <g
     inkscape:label="Layer 1"
     inkscape:groupmode="layer"
     id="layer1"
     transform="translate(-57.414574,-91.545829)">
    <path
       style="font-size:12.8708px;line-height:1.25;font-family:'Microgramma D Extended';-inkscape-font-specification:'Microgramma D Extended';fill:#333333;stroke-width:0.965309"
       d="M 57.414574,101.14262 H 60.027347 V 99.044676 H 63.322271 C 65.175667,99.044676 65.754853,98.993193 66.334039,98.800131 67.363703,98.426877 67.711214,97.680371 67.711214,95.775493 67.711214,93.574586 67.247865,92.879563 65.626145,92.635017 65.149925,92.570663 64.918251,92.557793 63.29653,92.557793 H 57.414574 Z M 60.027347,96.895252 V 94.707216 H 63.29653 C 64.442031,94.720087 64.467773,94.720087 64.647964,94.784441 64.982605,94.900278 65.098442,95.157694 65.098442,95.775493 65.098442,96.367549 65.021217,96.599224 64.776672,96.753673 64.557868,96.882381 64.506385,96.882381 63.29653,96.895252 Z M 67.801317,95.054728 70.517056,101.14262 H 71.430883 C 71.057629,102.08218 70.825955,102.28812 70.066578,102.27525 69.693325,102.27525 69.680454,102.27525 69.551746,102.28812 V 103.84548 C 69.706195,103.87123 70.053707,103.8841 70.529927,103.8841 71.315045,103.8841 71.817007,103.78113 72.19026,103.54946 72.576384,103.31778 72.614996,103.25343 73.245665,101.92774 L 76.489107,95.054728 H 73.96643 L 72.03581,99.482283 70.298252,95.054728 Z M 77.518773,93.651811 V 95.054728 H 76.321789 V 96.689319 H 77.518773 V 98.46549 C 77.518773,98.967451 77.518773,99.27635 77.531644,99.379317 77.557386,100.07434 77.686094,100.40898 78.007864,100.73075 78.458342,101.16836 79.050398,101.29707 80.504799,101.29707 82.075036,101.29707 82.77006,101.104 83.233408,100.52482 83.58092,100.07434 83.671016,99.701087 83.696757,98.542715 H 81.611688 C 81.611688,99.173384 81.598817,99.224867 81.521592,99.366446 81.418626,99.585249 81.16121,99.675345 80.697861,99.675345 80.260254,99.675345 80.028579,99.585249 79.912742,99.379317 79.809776,99.224867 79.796905,99.134771 79.796905,98.46549 V 96.689319 H 83.400729 V 95.054728 H 79.796905 V 93.651811 Z M 84.3403,92.557793 V 101.14262 H 86.618432 V 98.542715 C 86.618432,96.920994 86.940202,96.599224 88.549052,96.599224 90.042064,96.599224 90.312351,96.843769 90.312351,98.169461 V 101.14262 H 92.590483 V 98.169461 C 92.590483,96.740803 92.448904,96.187358 91.921201,95.646785 91.393498,95.106211 90.634121,94.887407 89.282687,94.887407 87.841158,94.887407 87.094651,95.209177 86.721398,95.981425 H 86.618432 V 92.557793 Z M 97.725937,94.900278 C 95.653738,94.900278 94.765653,95.041857 94.199338,95.453723 93.59441,95.89133 93.414219,96.470516 93.414219,97.899175 93.414219,99.662474 93.555798,100.22879 94.122113,100.69214 94.701299,101.16836 95.460676,101.29707 97.738808,101.29707 99.991198,101.29707 100.75058,101.16836 101.32976,100.69214 101.88321,100.22879 102.03766,99.662474 102.03766,97.98927 102.03766,96.457645 101.87033,95.904201 101.25254,95.453723 100.68622,95.041857 99.811007,94.900278 97.725937,94.900278 Z M 97.738808,96.612095 C 98.382348,96.612095 98.922922,96.676449 99.206079,96.792286 99.630816,96.959606 99.759524,97.255635 99.759524,98.079366 99.759524,99.366446 99.463495,99.585249 97.738808,99.585249 97.005172,99.585249 96.49034,99.520895 96.207183,99.392187 95.795317,99.224867 95.692351,98.95458 95.692351,98.14372 95.692351,96.843769 96.00125,96.612095 97.738808,96.612095 Z M 102.88712,95.054728 V 101.14262 H 105.16526 V 98.710035 C 105.16526,97.590275 105.21674,97.307118 105.4999,97.011089 105.77018,96.727932 106.22066,96.612095 107.05726,96.612095 107.90674,96.612095 108.34434,96.70219 108.58889,96.946735 108.83343,97.17841 108.87205,97.397213 108.87205,98.375394 V 101.14262 H 111.15018 V 98.375394 C 111.15018,96.70219 111.03434,96.238841 110.4809,95.659655 109.94032,95.106211 109.19382,94.900278 107.73942,94.900278 106.25927,94.900278 105.56425,95.196307 105.15238,95.981425 H 105.03655 V 95.054728 Z"
       id="text862"
       aria-label="Python" />
    <path
       style="font-weight:900;font-size:6.4563px;line-height:1.25;font-family:Lato;-inkscape-font-specification:'Lato Heavy';fill:#333333;stroke-width:0.484225"
       d="M 66.674009,120.82808 H 65.576438 V 116.12466 H 66.674009 Z M 71.69056,116.12466 V 120.82808 H 71.122405 Q 70.996507,120.82808 70.909347,120.78934 70.825415,120.74738 70.741483,120.6473 L 68.523745,117.84204 Q 68.536657,117.96794 68.539885,118.08738 68.546342,118.20359 68.546342,118.30689 V 120.82808 H 67.584353 V 116.12466 H 68.158964 Q 68.229983,116.12466 68.278405,116.13112 68.326827,116.13758 68.365565,116.15695 68.404303,116.17309 68.439813,116.20537 68.475322,116.23765 68.520516,116.29253 L 70.757624,119.11716 Q 70.741483,118.98158 70.735027,118.85568 70.728571,118.72655 70.728571,118.61357 V 116.12466 Z M 75.199561,117.0802 Q 75.151139,117.15767 75.09626,117.19641 75.04461,117.23515 74.960678,117.23515 74.886431,117.23515 74.799271,117.18995 74.715339,117.14153 74.605582,117.08343 74.499053,117.02532 74.360242,116.98012 74.221432,116.9317 74.043884,116.9317 73.737209,116.9317 73.585486,117.06406 73.436991,117.19318 73.436991,117.41592 73.436991,117.55796 73.52738,117.65158 73.617768,117.7452 73.763035,117.81299 73.911529,117.88078 74.098762,117.93889 74.289223,117.99376 74.48614,118.06478 74.683057,118.13257 74.87029,118.22619 75.060751,118.31981 75.206018,118.46507 75.354512,118.61034 75.444901,118.82017 75.535289,119.02677 75.535289,119.32053 75.535289,119.64658 75.422304,119.93065 75.309318,120.21473 75.093032,120.42779 74.879974,120.63762 74.563616,120.76029 74.250485,120.87973 73.850195,120.87973 73.63068,120.87973 73.401482,120.83454 73.175511,120.78934 72.962453,120.70864 72.749395,120.62471 72.562163,120.51172 72.37493,120.39874 72.23612,120.25992 L 72.558935,119.74988 Q 72.597672,119.695 72.659007,119.65949 72.72357,119.62075 72.797818,119.62075 72.894662,119.62075 72.991507,119.68209 73.091579,119.74342 73.214249,119.81767 73.340147,119.89192 73.501554,119.95325 73.662962,120.01459 73.882476,120.01459 74.179466,120.01459 74.344102,119.88546 74.508737,119.75311 74.508737,119.46903 74.508737,119.30439 74.418349,119.20109 74.327961,119.09779 74.179466,119.03 74.034199,118.96221 73.846966,118.91056 73.659734,118.85891 73.462817,118.79757 73.265899,118.73301 73.078667,118.64262 72.891434,118.54901 72.742939,118.40051 72.597672,118.24879 72.507284,118.02605 72.416896,117.80007 72.416896,117.4708 72.416896,117.2061 72.523425,116.9543 72.629954,116.7025 72.836556,116.50559 73.043157,116.30867 73.343375,116.19246 73.643593,116.07301 74.030971,116.07301 74.247257,116.07301 74.45063,116.10852 74.657232,116.14081 74.841237,116.2086 75.025241,116.27316 75.18342,116.36678 75.344828,116.45716 75.470726,116.57338 Z M 79.557569,116.98981 H 78.234027 V 120.82808 H 77.142913 V 116.98981 H 75.819371 V 116.12466 H 79.557569 Z M 81.207149,120.82808 H 80.109578 V 116.12466 H 81.207149 Z M 85.497365,116.98981 H 84.173824 V 120.82808 H 83.082709 V 116.98981 H 81.759167 V 116.12466 H 85.497365 Z M 88.012088,119.96616 Q 88.231602,119.96616 88.402694,119.89514 88.577014,119.8209 88.696456,119.68531 88.815898,119.54973 88.877232,119.35604 88.941795,119.15913 88.941795,118.91056 V 116.12466 H 90.03291 V 118.91056 Q 90.03291,119.34313 89.890871,119.70468 89.752061,120.06624 89.490581,120.32772 89.229101,120.5892 88.854635,120.73446 88.48017,120.87973 88.012088,120.87973 87.540778,120.87973 87.166313,120.73446 86.791848,120.5892 86.530367,120.32772 86.268887,120.06624 86.130077,119.70468 85.991266,119.34313 85.991266,118.91056 V 116.12466 H 87.082381 V 118.90733 Q 87.082381,119.1559 87.143716,119.35281 87.208279,119.5465 87.32772,119.68531 87.447162,119.8209 87.618254,119.89514 87.792574,119.96616 88.012088,119.96616 Z M 94.265019,116.98981 H 92.941478 V 120.82808 H 91.850363 V 116.98981 H 90.526822 V 116.12466 H 94.265019 Z M 95.914598,116.96398 V 118.06155 H 97.393091 V 118.86859 H 95.914598 V 119.98876 H 97.845032 V 120.82808 H 94.817028 V 116.12466 H 97.845032 V 116.96398 Z"
       id="text863"
       transform="scale(1.1359809,0.8802965)"
       aria-label="INSTITUTE" />
    <path
       style="vector-effect:none;fill:url(#linearGradient870);fill-rule:nonzero;stroke:none;stroke-width:8;stroke-linecap:butt;stroke-linejoin:miter;stroke-miterlimit:98;stroke-dasharray:none;stroke-dashoffset:40;stroke-opacity:1;paint-order:normal"
       d="M 61.0005,61.0005 C 97.001,25 155.501,25 250.001,25 344.501,25 403.001,25 439.0005,61.0005 475,97.001 475,155.501 475,250.001 475,344.501 475,403.001 439.0005,439.0005 403.001,475 344.501,475 250.001,475 155.501,475 97.001,475 61.0005,439.0005 25,403.001 25,344.501 25,250.001 25,155.501 25,97.001 61.0005,61.0005 Z"
       id="path864"
       inkscape:connector-curvature="0"
       sodipodi:nodetypes="ccccccccc"
       transform="matrix(0.03700542,-0.00487186,0.00487186,0.03700542,111.98107,92.84718)" />
    <path
       style="vector-effect:none;fill:url(#radialGradient869);fill-opacity:1;fill-rule:nonzero;stroke:none;stroke-width:8;stroke-linecap:butt;stroke-linejoin:miter;stroke-miterlimit:98;stroke-dasharray:none;stroke-dashoffset:40;stroke-opacity:1;paint-order:normal"
       d="M 61.0005,61.0005 C 97.001,25 155.501,25 250.001,25 344.501,25 403.001,25 439.0005,61.0005 475,97.001 475,155.501 475,250.001 475,344.501 475,403.001 439.0005,439.0005 403.001,475 344.501,475 250.001,475 155.501,475 97.001,475 61.0005,439.0005 25,403.001 25,344.501 25,250.001 25,155.501 25,97.001 61.0005,61.0005 Z"
       id="path865"
       inkscape:connector-curvature="0"
       sodipodi:nodetypes="ccccccccc"
       transform="matrix(0.03700542,-0.00487186,0.00487186,0.03700542,111.54611,92.24034)" />
    <path
       style="font-size:10.4991px;line-height:1.25;font-family:'Microgramma D Extended';-inkscape-font-specification:'Microgramma D Extended, Normal';stroke-width:0.328095;fill:url(#linearGradient3)"
       d="M 116.02642,104.35039 H 118.15774 V 102.63903 H 120.84551 C 122.35738,102.63903 122.82984,102.59704 123.3023,102.43955 124.14223,102.13508 124.4257,101.52613 124.4257,99.972263 124.4257,98.176917 124.04774,97.609966 122.72485,97.410483 122.33638,97.357987 122.1474,97.347488 120.82451,97.347488 H 116.02642 Z M 118.15774,100.88568 V 99.100838 H 120.82451 C 121.75893,99.111337 121.77993,99.111337 121.92692,99.163832 122.19989,99.258324 122.29439,99.468306 122.29439,99.972263 122.29439,100.45522 122.23139,100.64421 122.03191,100.77019 121.85342,100.87519 121.81143,100.87519 120.82451,100.88568 Z M 125.12915,97.347488 V 104.35039 H 127.36546 V 97.347488 Z"
       id="text865"
       aria-label="PI" />
    <path
       style="font-size:10.4991px;line-height:1.25;font-family:'Microgramma D Extended';-inkscape-font-specification:'Microgramma D Extended, Normal';fill:#ffffff;stroke-width:0.328095"
       d="M 116.34598,103.77519 H 118.4773 V 102.06384 H 121.16507 C 122.67694,102.06384 123.1494,102.02184 123.62186,101.86436 124.46179,101.55988 124.74526,100.95093 124.74526,99.397068 124.74526,97.601722 124.36729,97.03477 123.04441,96.835287 122.65594,96.782792 122.46696,96.772293 121.14407,96.772293 H 116.34598 Z M 118.4773,100.31049 V 98.525642 H 121.14407 C 122.07849,98.536141 122.09949,98.536141 122.24648,98.588637 122.51945,98.683129 122.61394,98.893111 122.61394,99.397068 122.61394,99.880026 122.55095,100.06901 122.35147,100.195 122.17298,100.29999 122.13099,100.29999 121.14407,100.31049 Z M 125.44871,96.772293 V 103.77519 H 127.68502 V 96.772293 Z"
       id="text866"
       aria-label="PI" />
    <text
       xml:space="preserve"
       style="font-size:2.14082px;line-height:1.25;font-family:sans-serif;text-decoration-color:#000000;fill:#1373e1;fill-opacity:1;stroke-width:0.118106;-inkscape-stroke:none;stop-color:#000000"
       x="74.35363"
       y="109.24132"
       id="text1"><tspan
         sodipodi:role="line"
         id="tspan1"
         style="font-style:normal;font-variant:normal;font-weight:normal;font-stretch:normal;font-family:Lato;-inkscape-font-specification:Lato;fill:#1373e1;fill-opacity:1;stroke-width:0.118106"
         x="74.35363"
         y="109.24132">Open Education &amp; Development Group</tspan></text>
  </g>
</svg>
