<?xml version="1.0" standalone="no"?>
<!DOCTYPE svg PUBLIC "-//W3C//DTD SVG 20010904//EN"
 "http://www.w3.org/TR/2001/REC-SVG-20010904/DTD/svg10.dtd">
<svg version="1.0" xmlns="http://www.w3.org/2000/svg"
 width="512.000000pt" height="512.000000pt" viewBox="0 0 512.000000 512.000000"
 preserveAspectRatio="xMidYMid meet">

<g transform="translate(0.000000,512.000000) scale(0.100000,-0.100000)"
fill="#0992e1" stroke="none">
<path d="M403 5106 c-106 -34 -196 -116 -235 -215 -20 -51 -22 -74 -22 -254
-1 -197 -1 -199 23 -218 28 -22 69 -25 97 -5 17 13 19 31 24 208 5 182 7 195
30 238 14 24 45 58 68 75 l44 30 1626 0 1627 0 40 -21 c55 -29 97 -90 103
-152 l4 -50 -43 -22 c-24 -12 -82 -51 -129 -85 -47 -34 -95 -67 -106 -73 -12
-7 -80 -21 -150 -32 -245 -39 -305 -98 -340 -336 -19 -133 -34 -168 -116 -276
-76 -100 -103 -162 -102 -238 1 -72 28 -131 109 -240 81 -108 89 -129 109
-265 35 -237 102 -303 342 -336 l84 -12 2 -593 3 -592 24 -26 c26 -28 76 -42
115 -32 13 3 46 23 73 44 26 21 65 51 86 66 l37 29 -2 -720 -3 -719 -28 -43
c-20 -29 -44 -50 -80 -67 l-52 -24 -1596 0 c-1167 0 -1605 3 -1630 11 -51 18
-97 55 -122 102 l-22 42 -3 1937 -2 1937 -26 20 c-35 27 -57 26 -91 -3 l-28
-24 -3 -1899 c-1 -1188 1 -1922 7 -1961 19 -124 89 -220 199 -274 l67 -33
1650 0 1650 0 56 26 c76 36 129 86 170 161 l34 63 3 733 c1 402 5 732 9 732 3
0 40 -26 82 -58 115 -89 141 -98 201 -67 60 31 60 31 60 520 0 432 -1 446 -20
465 -27 27 -84 27 -108 0 -15 -19 -17 -59 -22 -416 l-5 -395 -109 85 c-151
117 -165 117 -308 4 -51 -41 -99 -77 -105 -82 -10 -6 -13 94 -13 484 l0 491
53 -40 c94 -70 133 -86 217 -86 88 0 120 14 250 110 112 82 112 82 232 100 56
9 126 22 154 30 125 36 182 121 209 315 20 139 26 153 104 255 88 114 113 171
113 248 1 81 -19 124 -115 255 -81 110 -84 118 -107 287 -19 140 -77 230 -174
270 -19 8 -92 24 -161 35 -70 11 -137 25 -149 32 -11 6 -59 39 -106 73 -47 35
-106 73 -131 85 l-46 23 -5 62 c-10 119 -90 229 -207 284 l-56 26 -1635 2
c-1333 1 -1643 -1 -1677 -11z m3569 -525 c20 -10 65 -41 100 -69 113 -90 149
-104 352 -136 94 -16 132 -35 153 -77 6 -13 21 -80 32 -148 25 -149 42 -188
127 -303 37 -49 72 -105 79 -125 20 -59 14 -72 -120 -261 -50 -71 -68 -124
-89 -264 -25 -171 -41 -185 -233 -213 -130 -19 -187 -44 -302 -129 -105 -77
-121 -86 -161 -86 -40 0 -56 9 -161 86 -116 86 -172 109 -308 129 -186 27
-202 42 -226 207 -24 159 -38 196 -110 295 -36 48 -77 112 -91 141 -25 52 -26
55 -10 95 9 23 43 78 77 122 96 126 107 154 133 333 9 57 23 117 33 133 22 37
70 55 198 74 139 20 177 35 285 116 140 105 173 116 242 80z"/>
<path d="M3870 4248 c-14 -7 -61 -67 -106 -133 l-81 -119 -143 -42 c-145 -42
-164 -54 -177 -101 -9 -39 4 -65 93 -177 l86 -108 -4 -155 -3 -155 33 -29 c18
-16 41 -29 52 -29 11 0 81 22 154 49 l135 50 137 -50 c149 -54 175 -56 214
-14 22 24 23 31 21 180 l-2 154 86 108 c89 113 101 137 91 178 -11 45 -40 61
-180 100 l-139 39 -77 116 c-42 63 -84 121 -92 128 -23 19 -71 24 -98 10z
m104 -279 c33 -49 68 -95 79 -100 10 -6 58 -22 106 -35 125 -36 117 -31 94
-57 -11 -12 -43 -53 -72 -90 l-51 -68 0 -120 c0 -65 -2 -119 -4 -119 -2 0 -46
16 -96 35 -50 19 -104 35 -118 35 -15 0 -69 -16 -121 -35 -51 -19 -95 -35 -97
-35 -2 0 -4 54 -4 119 l0 119 -37 49 c-20 26 -52 67 -71 90 -25 31 -30 44 -21
47 8 3 53 16 100 30 48 13 96 29 106 35 11 5 46 51 79 100 32 50 61 91 64 91
3 0 32 -41 64 -91z"/>
<path d="M1970 4645 c-103 -29 -176 -89 -228 -189 -26 -49 -27 -57 -30 -239
-4 -212 4 -254 64 -333 32 -41 34 -49 34 -118 l0 -74 -64 -22 c-111 -36 -194
-107 -245 -209 -25 -49 -71 -249 -71 -309 0 -96 57 -184 148 -229 l57 -28 383
-3 c423 -4 490 2 561 45 54 34 107 115 117 180 9 60 -30 272 -64 343 -38 82
-123 160 -215 199 -42 17 -80 31 -86 31 -5 0 -11 35 -13 77 -3 69 0 81 20 104
12 15 35 54 50 86 26 57 27 62 27 243 0 183 0 186 -29 247 -72 157 -254 243
-416 198z m186 -162 c41 -21 88 -74 99 -110 8 -27 -16 -39 -111 -56 -51 -9
-67 -8 -102 6 -47 19 -84 11 -101 -22 -48 -89 66 -158 217 -133 37 6 77 14 90
18 21 6 22 4 22 -52 0 -81 -15 -129 -56 -174 -45 -49 -90 -70 -153 -70 -82 0
-147 41 -185 118 -15 28 -17 60 -14 201 3 158 4 170 27 203 62 90 173 120 267
71z m14 -790 c0 -46 -3 -55 -27 -70 -30 -20 -112 -22 -155 -5 -26 11 -28 16
-28 69 l0 58 105 0 105 0 0 -52z m-309 -173 c116 -84 269 -87 391 -9 43 28 51
30 81 20 61 -21 124 -68 151 -114 31 -52 70 -235 61 -284 -3 -18 -19 -43 -36
-57 l-31 -26 -417 0 -418 0 -26 24 c-14 13 -29 36 -33 50 -8 34 22 208 46 261
24 54 74 103 135 131 61 29 60 29 96 4z"/>
<path d="M555 2545 c-14 -13 -25 -36 -25 -50 0 -33 42 -75 75 -75 33 0 75 42
75 75 0 14 -11 37 -25 50 -13 14 -36 25 -50 25 -14 0 -37 -11 -50 -25z"/>
<path d="M836 2549 c-36 -28 -36 -80 0 -108 27 -21 28 -21 1219 -21 l1192 0
21 23 c31 33 29 80 -4 106 -27 21 -28 21 -1214 21 -1186 0 -1187 0 -1214 -21z"/>
<path d="M581 2158 c-52 -19 -65 -68 -30 -112 40 -50 129 -23 129 40 0 55 -49
91 -99 72z"/>
<path d="M854 2156 c-48 -21 -60 -80 -24 -116 20 -20 33 -20 1220 -20 1187 0
1200 0 1220 20 25 25 26 71 1 101 l-19 24 -1184 2 c-978 2 -1188 0 -1214 -11z"/>
<path d="M555 1735 c-14 -13 -25 -36 -25 -50 0 -33 42 -75 75 -75 33 0 75 41
75 73 0 68 -78 100 -125 52z"/>
<path d="M832 1737 c-31 -33 -29 -80 4 -106 27 -21 28 -21 1214 -21 1186 0
1187 0 1214 21 34 27 36 77 3 107 l-23 22 -1195 0 -1196 0 -21 -23z"/>
<path d="M575 1349 c-49 -28 -58 -70 -24 -113 40 -51 129 -20 129 46 0 52 -62
91 -105 67z"/>
<path d="M853 1350 c-44 -18 -57 -86 -23 -120 20 -20 33 -20 1220 -20 1187 0
1200 0 1220 20 27 27 26 81 -1 106 -20 18 -56 19 -1208 21 -671 1 -1195 -2
-1208 -7z"/>
<path d="M551 924 c-39 -50 -16 -108 46 -120 67 -13 110 77 60 124 -33 31 -80
29 -106 -4z"/>
<path d="M832 927 c-29 -31 -28 -72 3 -102 l24 -25 1189 0 c1188 0 1189 0
1216 21 33 26 36 79 6 109 -20 20 -33 20 -1218 20 l-1199 0 -21 -23z"/>
<path d="M573 540 c-70 -28 -45 -140 31 -140 68 0 99 78 51 125 -25 26 -45 30
-82 15z"/>
<path d="M835 525 c-32 -31 -33 -74 -2 -103 l23 -22 1197 0 c1184 0 1197 0
1217 20 30 30 27 83 -6 109 -27 21 -28 21 -1216 21 l-1189 0 -24 -25z"/>
</g>
</svg>
