<?xml version="1.0" standalone="no"?>
<!DOCTYPE svg PUBLIC "-//W3C//DTD SVG 20010904//EN"
 "http://www.w3.org/TR/2001/REC-SVG-20010904/DTD/svg10.dtd">
<svg version="1.0" xmlns="http://www.w3.org/2000/svg"
 width="512.000000pt" height="512.000000pt" viewBox="0 0 512.000000 512.000000"
 preserveAspectRatio="xMidYMid meet">

<g transform="translate(0.000000,512.000000) scale(0.100000,-0.100000)"
fill="#0992e1" stroke="#0992e1" stroke-width="25">
<path d="M1155 5106 c-24 -17 -32 -119 -13 -156 15 -28 60 -39 84 -19 21 17
20 152 -2 173 -19 20 -44 20 -69 2z"/>
<path d="M2965 4768 c-32 -11 -92 -52 -113 -78 -7 -8 -22 -33 -35 -55 l-22
-40 -3 -682 -3 -683 -559 0 c-308 0 -560 3 -560 7 0 3 42 49 93 102 106 109
167 204 208 324 137 398 -45 829 -426 1014 -385 187 -849 44 -1074 -331 -75
-125 -118 -307 -108 -461 14 -213 97 -395 248 -542 69 -66 169 -195 169 -217
0 -6 -15 -23 -34 -38 -74 -59 -99 -184 -55 -275 22 -45 80 -100 115 -109 19
-5 21 -15 27 -132 4 -70 7 -510 7 -977 0 -754 2 -853 16 -873 17 -24 62 -30
82 -10 9 9 12 211 12 846 l0 835 38 -7 c20 -3 72 -6 115 -6 l77 0 0 -788 c0
-665 2 -791 14 -808 14 -19 40 -19 1073 -25 582 -3 1069 -9 1083 -13 19 -6 31
-22 48 -66 l23 -59 -50 -80 c-30 -47 -51 -92 -51 -109 0 -38 222 -262 260
-262 14 0 63 23 109 51 l85 51 55 -24 55 -24 24 -94 c13 -52 31 -103 39 -112
14 -16 37 -18 188 -18 151 0 174 2 187 18 9 9 26 60 38 113 l23 95 56 22 55
22 84 -50 c46 -28 95 -50 110 -50 38 0 262 223 262 260 0 14 -23 63 -51 109
l-51 83 24 56 24 56 94 24 c52 13 103 31 113 39 15 14 17 37 17 188 0 151 -2
174 -17 187 -10 9 -61 26 -114 38 l-95 23 -22 56 -22 55 50 84 c28 46 50 95
50 110 0 36 -223 262 -258 262 -14 0 -62 -23 -109 -51 l-85 -51 -56 24 -56 24
-24 94 c-13 52 -31 103 -39 113 -14 14 -35 17 -140 17 l-123 0 0 355 0 355
423 0 c482 0 486 0 561 76 80 80 77 31 74 985 -3 844 -3 844 -25 884 -28 52
-77 101 -127 128 l-41 22 -965 2 c-658 1 -975 -2 -995 -9z m1949 -112 c18 -8
46 -31 62 -52 26 -34 29 -46 32 -131 l4 -93 -1056 0 -1056 0 0 88 c0 101 16
144 69 179 l34 23 939 0 c780 0 944 -2 972 -14z m-3509 -40 c112 -36 197 -89
286 -176 242 -240 285 -589 108 -887 -19 -31 -69 -93 -113 -137 -101 -103
-136 -147 -176 -218 l-32 -58 -114 0 -114 0 0 198 0 199 57 29 c96 49 143 129
143 244 -1 141 -113 250 -257 250 -111 0 -185 -46 -234 -146 -28 -57 -31 -71
-27 -127 3 -34 15 -81 26 -104 26 -50 104 -120 146 -131 l31 -8 0 -200 0 -199
-120 0 -120 0 -35 64 c-21 38 -80 112 -145 181 -125 134 -165 194 -207 316
-61 177 -48 364 39 544 39 82 58 107 137 185 115 114 221 172 377 205 81 17
255 5 344 -24z m3605 -1035 l0 -688 -23 -34 c-49 -73 16 -69 -1030 -69 -1030
0 -982 -3 -1028 61 l-24 34 -3 693 -2 692 1055 0 1055 0 0 -689z m-3740 350
c126 -89 71 -281 -81 -281 -108 0 -179 111 -135 213 35 84 145 118 216 68z
m1520 -921 l0 -110 -534 0 -534 0 -11 50 c-15 69 -34 103 -78 139 l-38 31 598
0 597 0 0 -110z m-1276 19 c75 -21 113 -96 81 -163 -33 -70 -36 -71 -365 -74
-351 -4 -372 -2 -417 43 -28 28 -33 40 -33 79 0 56 37 103 90 116 53 12 598
12 644 -1z m1352 -270 c16 -17 47 -41 69 -52 38 -21 54 -22 358 -25 l317 -3 0
-440 0 -439 -27 0 c-38 0 -263 -224 -263 -261 0 -14 23 -62 51 -107 l50 -83
-17 -47 c-9 -26 -22 -52 -28 -59 -6 -6 -51 -21 -101 -33 -128 -30 -125 -25
-125 -197 l0 -143 -930 0 -930 0 0 754 0 753 69 6 c75 6 113 21 148 59 34 36
43 72 43 167 l0 87 33 12 c18 6 48 28 67 47 l34 35 576 0 576 0 30 -31z
m-1426 -152 c0 -116 10 -111 -239 -115 l-211 -3 -25 25 c-22 22 -25 34 -25 96
l0 70 250 0 250 0 0 -73z m2507 -294 l-4 -368 -29 -102 -29 -102 -53 -20 c-49
-19 -56 -20 -83 -6 l-29 16 0 474 0 475 115 0 115 0 -3 -367z m318 -535 c22
-103 34 -123 82 -138 21 -7 59 -23 85 -36 26 -13 56 -24 66 -24 10 0 54 22 97
49 l80 50 77 -77 77 -76 -30 -50 c-16 -28 -39 -70 -51 -93 l-21 -42 30 -68
c17 -37 34 -78 37 -90 10 -33 29 -44 123 -67 l88 -22 3 -110 3 -110 -95 -23
c-52 -12 -99 -28 -105 -34 -5 -7 -19 -39 -32 -72 -12 -33 -28 -69 -35 -80 -25
-36 -16 -61 73 -200 11 -19 6 -27 -65 -98 l-78 -77 -74 46 c-41 25 -80 48 -87
51 -14 5 -192 -63 -211 -82 -8 -7 -24 -52 -36 -101 l-22 -89 -110 -3 -110 -3
-18 83 c-21 101 -34 123 -83 138 -21 7 -59 23 -85 36 -26 13 -55 24 -64 24
-14 0 -76 -34 -159 -87 -19 -11 -27 -6 -98 65 l-77 77 50 80 c27 44 50 88 50
98 0 10 -11 39 -24 65 -13 26 -29 64 -35 84 -16 50 -27 57 -128 82 l-88 22 -3
110 -3 109 83 18 c102 23 123 36 138 84 7 21 23 59 36 85 31 60 30 74 -4 129
-15 24 -38 60 -50 80 l-21 35 77 77 77 77 83 -50 c46 -28 90 -50 98 -50 8 0
36 11 62 24 26 13 64 29 85 36 48 15 62 37 83 130 9 41 18 78 21 83 2 4 53 7
112 7 l108 0 18 -82z"/>
<path d="M4260 4561 c-26 -49 -4 -93 46 -93 48 0 75 59 44 97 -18 22 -77 19
-90 -4z"/>
<path d="M4516 4558 c-20 -29 -20 -41 2 -68 36 -44 102 -20 102 36 0 52 -74
75 -104 32z"/>
<path d="M4776 4564 c-35 -34 -10 -96 39 -96 28 0 65 31 65 56 0 46 -71 74
-104 40z"/>
<path d="M1070 4494 c-246 -52 -436 -264 -457 -509 -5 -59 -3 -74 11 -88 41
-41 96 -7 96 59 1 136 97 296 226 374 61 37 164 68 226 69 62 1 91 57 50 94
-22 20 -64 20 -152 1z"/>
<path d="M4031 3852 c-5 -9 -57 -143 -116 -297 -59 -154 -109 -284 -112 -288
-3 -4 23 -7 57 -5 l62 3 107 280 c60 154 111 290 115 303 7 21 5 22 -48 22
-43 0 -57 -4 -65 -18z"/>
<path d="M3515 3666 l-200 -104 0 -43 0 -42 200 -104 c110 -56 201 -103 202
-103 2 0 3 27 3 60 l0 60 -127 63 c-69 35 -122 66 -117 69 5 3 59 32 119 63
61 32 114 61 118 65 4 4 7 32 5 63 l-3 56 -200 -103z"/>
<path d="M4190 3711 l0 -61 125 -62 c69 -35 125 -65 125 -68 0 -3 -56 -33
-125 -68 l-125 -62 0 -61 c0 -36 4 -59 10 -57 5 2 98 48 205 103 l195 100 0
45 0 45 -197 100 c-109 55 -201 102 -205 103 -4 2 -8 -24 -8 -57z"/>
<path d="M2308 2589 c-10 -5 -22 -28 -28 -49 -5 -22 -14 -57 -20 -78 -7 -29
-18 -42 -45 -55 l-36 -17 -66 40 c-37 22 -76 40 -86 40 -24 0 -205 -176 -213
-206 -4 -14 8 -44 36 -89 40 -66 41 -68 27 -104 -14 -34 -19 -37 -93 -56 -99
-25 -104 -33 -104 -182 0 -134 9 -159 62 -173 21 -6 56 -15 78 -20 32 -9 43
-18 55 -46 15 -35 14 -37 -26 -105 -29 -48 -39 -76 -35 -92 7 -29 188 -207
210 -207 10 0 48 18 85 40 66 40 68 40 103 25 32 -13 37 -21 48 -67 7 -29 18
-68 26 -85 l13 -33 151 0 151 0 13 33 c8 17 19 56 26 85 11 46 16 54 48 67 35
15 37 15 103 -25 37 -22 75 -40 85 -40 22 0 203 178 210 206 4 15 -7 45 -35
92 -41 67 -41 69 -27 104 14 33 21 37 87 53 107 26 109 30 109 184 0 156 -3
161 -106 186 -65 15 -72 20 -88 51 l-16 35 40 68 c22 37 40 75 40 85 0 23
-177 205 -206 212 -15 4 -45 -8 -92 -36 l-70 -41 -35 17 c-34 16 -38 23 -53
91 -22 100 -27 103 -184 103 -69 0 -133 -5 -142 -11z m225 -139 c27 -112 27
-111 65 -126 20 -8 58 -24 84 -36 l46 -21 67 38 67 37 49 -48 c27 -27 49 -51
49 -55 0 -4 -16 -35 -36 -69 l-37 -61 21 -47 c12 -26 28 -64 36 -84 15 -38 14
-37 126 -66 l35 -8 0 -74 0 -74 -69 -17 c-37 -10 -72 -21 -76 -26 -7 -7 -56
-120 -66 -153 -3 -8 11 -41 31 -74 19 -32 35 -61 35 -65 0 -4 -22 -28 -49 -55
l-49 -48 -66 37 -66 37 -78 -32 c-42 -18 -81 -36 -86 -41 -5 -5 -17 -39 -27
-76 l-17 -68 -73 0 -73 0 -16 68 c-9 37 -21 72 -26 76 -11 11 -152 71 -166 71
-6 0 -37 -17 -69 -37 l-60 -36 -49 48 c-28 27 -50 52 -50 56 0 4 16 35 36 68
l36 61 -32 77 c-39 95 -42 99 -82 107 -18 3 -49 11 -70 17 l-39 10 3 71 3 72
69 17 c37 10 72 21 76 26 10 10 70 154 70 167 0 4 -16 35 -36 68 l-37 60 49
49 c26 27 51 49 55 49 4 0 35 -16 69 -36 l61 -37 47 21 c26 12 63 28 83 36 38
15 43 24 69 124 l11 43 71 -3 72 -3 9 -35z"/>
<path d="M2360 2151 c-90 -29 -174 -103 -212 -186 -32 -69 -32 -199 -1 -267
30 -66 96 -133 162 -165 48 -24 68 -28 141 -28 73 0 93 4 142 28 204 100 251
368 93 530 -60 61 -127 90 -220 93 -44 2 -91 0 -105 -5z m185 -120 c83 -37
129 -120 123 -218 -5 -83 -42 -137 -117 -175 -73 -37 -131 -37 -202 0 -159 83
-157 312 3 391 54 27 138 28 193 2z"/>
<path d="M4060 1520 c-210 -29 -384 -183 -447 -394 -19 -62 -20 -213 -3 -276
50 -184 203 -337 390 -391 74 -21 224 -16 300 10 168 58 289 178 348 345 21
58 25 90 25 171 0 81 -4 113 -25 171 -88 250 -330 400 -588 364z m225 -131
c190 -71 312 -280 276 -474 -42 -232 -265 -394 -489 -357 -234 39 -399 260
-363 486 44 275 321 441 576 345z"/>
<path d="M4085 1211 c-109 -28 -178 -116 -178 -226 0 -131 97 -228 228 -229
130 -1 230 99 229 229 -1 90 -46 165 -124 205 -43 22 -114 32 -155 21z m124
-131 c78 -55 56 -180 -35 -210 -103 -34 -198 76 -146 169 38 69 117 87 181 41z"/>
<path d="M2045 4730 c-37 -15 -97 -86 -97 -116 0 -30 24 -54 56 -54 24 0 116
93 116 118 0 38 -40 65 -75 52z"/>
<path d="M277 4712 c-26 -29 -20 -49 29 -102 33 -36 54 -50 73 -50 66 0 70 64
7 126 -48 48 -82 56 -109 26z"/>
<path d="M20 4080 c-24 -24 -26 -53 -4 -74 19 -20 153 -23 172 -4 20 20 14 65
-10 82 -34 24 -133 21 -158 -4z"/>
<path d="M2197 4082 c-22 -24 -21 -55 1 -75 27 -25 143 -24 165 1 21 23 22 56
1 76 -24 24 -145 22 -167 -2z"/>
<path d="M676 527 c-16 -12 -17 -29 -14 -178 3 -164 3 -166 33 -215 33 -53
104 -107 163 -124 24 -6 523 -10 1463 -10 1169 0 1428 2 1443 13 21 15 25 62
7 80 -9 9 -369 13 -1456 17 l-1444 5 -28 21 c-61 45 -73 77 -73 190 l0 104
1183 0 c1290 0 1227 -3 1227 55 0 59 82 55 -1259 55 -992 0 -1231 -2 -1245
-13z"/>
</g>
</svg>
