<?xml version="1.0" standalone="no"?>
<!DOCTYPE svg PUBLIC "-//W3C//DTD SVG 20010904//EN"
 "http://www.w3.org/TR/2001/REC-SVG-20010904/DTD/svg10.dtd">
<svg version="1.0" xmlns="http://www.w3.org/2000/svg"
 width="512.000000pt" height="512.000000pt" viewBox="0 0 512.000000 512.000000"
 preserveAspectRatio="xMidYMid meet">

<g transform="translate(0.000000,512.000000) scale(0.100000,-0.100000)"
fill="#0992e1" stroke="none">
<path d="M720 5027 c-49 -16 -133 -102 -148 -153 -17 -58 -17 -890 0 -948 16
-55 99 -138 154 -154 58 -17 890 -17 948 0 55 16 138 99 154 154 17 58 17 890
0 946 -6 22 -31 62 -55 88 -72 81 -69 80 -577 79 -291 -1 -453 -5 -476 -12z
m935 -172 l25 -24 0 -431 0 -431 -25 -24 -24 -25 -431 0 -431 0 -24 25 -25 24
0 431 0 431 25 24 24 25 431 0 431 0 24 -25z"/>
<path d="M1248 4483 l-208 -208 -48 48 c-26 26 -52 47 -58 47 -13 0 -104 -93
-104 -106 0 -5 47 -56 105 -114 l105 -105 265 265 c146 146 265 270 265 275 0
13 -92 105 -105 105 -6 0 -103 -93 -217 -207z"/>
<path d="M2303 4832 c-155 -103 -282 -189 -282 -192 -1 -6 562 -380 571 -380
7 0 88 114 88 124 0 3 -57 44 -127 91 l-128 85 118 0 c464 0 894 -148 1262
-435 169 -132 368 -362 482 -557 25 -43 50 -78 56 -78 18 0 127 64 127 75 0
19 -119 207 -193 305 -39 52 -125 149 -192 216 -184 184 -359 310 -588 419
-296 142 -616 215 -947 215 l-125 0 128 85 c70 47 127 88 127 91 0 10 -81 124
-88 124 -4 0 -134 -84 -289 -188z"/>
<path d="M2238 3529 c-30 -94 -45 -101 -126 -60 -34 17 -67 31 -74 31 -17 0
-418 -401 -418 -418 0 -7 14 -40 31 -74 41 -81 34 -96 -60 -126 l-71 -23 0
-299 0 -299 71 -23 c94 -30 101 -45 60 -126 -17 -34 -31 -67 -31 -74 0 -17
401 -418 418 -418 7 0 40 14 74 31 81 41 96 34 126 -60 l23 -71 299 0 299 0
23 71 c30 94 45 101 126 60 34 -17 67 -31 74 -31 17 0 418 401 418 418 0 7
-14 40 -31 74 -41 81 -34 96 60 126 l71 23 0 299 0 299 -71 23 c-94 30 -101
45 -60 126 17 34 31 67 31 74 0 17 -401 418 -418 418 -7 0 -40 -14 -74 -31
-81 -41 -96 -34 -126 60 l-23 71 -299 0 -299 0 -23 -71z m527 -145 l20 -55 82
-33 83 -33 52 24 52 24 128 -129 129 -128 -24 -52 -24 -52 33 -83 33 -82 55
-20 56 -20 0 -185 0 -185 -56 -20 -55 -20 -33 -82 -33 -83 24 -52 24 -52 -129
-128 -128 -129 -52 24 -52 24 -83 -33 -82 -33 -20 -55 -20 -56 -185 0 -185 0
-20 56 -20 55 -82 34 -82 33 -52 -25 -53 -24 -128 129 -129 128 24 52 24 52
-33 83 -33 82 -55 20 -56 20 0 185 0 185 56 20 55 20 33 82 33 83 -24 52 -24
52 129 128 128 129 53 -24 52 -25 82 33 82 34 20 55 20 56 185 0 185 0 20 -56z"/>
<path d="M2421 3185 c-110 -24 -226 -89 -311 -175 -250 -250 -252 -649 -5
-895 122 -121 256 -183 419 -192 292 -16 560 170 649 452 31 99 31 271 0 370
-101 318 -428 510 -752 440z m254 -160 c172 -45 305 -179 350 -352 65 -249
-94 -511 -350 -578 -250 -65 -513 94 -580 350 -89 342 238 669 580 580z"/>
<path d="M2485 2871 c-92 -24 -173 -90 -215 -176 -19 -41 -24 -66 -24 -135 -1
-78 2 -90 33 -148 38 -70 70 -100 145 -140 43 -22 64 -26 136 -26 72 0 93 4
136 26 75 40 107 70 145 140 31 58 34 70 33 148 0 72 -4 93 -26 136 -39 75
-70 107 -137 143 -65 34 -164 49 -226 32z m138 -165 c103 -43 128 -177 48
-257 -65 -65 -157 -65 -222 0 -124 123 13 325 174 257z"/>
<path d="M574 3413 c-14 -32 -43 -110 -64 -175 -147 -436 -143 -931 10 -1350
17 -45 29 -83 27 -84 -2 -2 -77 37 -167 87 -91 50 -169 91 -174 92 -5 1 -26
-28 -47 -65 l-37 -68 296 -163 c379 -210 361 -201 367 -185 9 26 172 713 169
716 -3 5 -148 42 -150 39 -4 -3 -94 -382 -94 -393 -1 -46 -84 203 -110 331
-73 352 -41 730 90 1070 23 61 44 118 47 127 4 13 -11 24 -62 47 -37 17 -69
31 -72 31 -2 0 -15 -26 -29 -57z"/>
<path d="M3920 3187 c-49 -16 -133 -102 -148 -153 -9 -30 -12 -164 -12 -474 0
-310 3 -444 12 -474 16 -55 99 -138 154 -154 58 -17 890 -17 948 0 55 16 138
99 154 154 17 58 17 890 0 946 -6 22 -31 62 -55 88 -72 81 -69 80 -577 79
-291 -1 -453 -5 -476 -12z m935 -172 l25 -24 0 -431 0 -431 -25 -24 -24 -25
-431 0 -431 0 -24 25 -25 24 0 431 0 431 25 24 24 25 431 0 431 0 24 -25z"/>
<path d="M4448 2643 l-208 -208 -48 48 c-26 26 -52 47 -58 47 -13 0 -104 -93
-104 -106 0 -5 47 -56 105 -114 l105 -105 265 265 c146 146 265 270 265 275 0
13 -92 105 -105 105 -6 0 -103 -93 -217 -207z"/>
<path d="M4100 1608 c-195 -49 -356 -90 -357 -92 -1 -1 2 -18 7 -37 5 -19 14
-53 19 -75 l11 -42 216 55 c119 29 221 52 225 51 17 -6 -152 -218 -254 -321
-566 -569 -1427 -742 -2167 -437 -40 17 -75 30 -77 30 -5 0 -63 -129 -63 -139
0 -14 234 -100 352 -130 201 -52 313 -65 538 -66 225 0 332 12 510 56 324 79
599 215 855 422 109 88 287 273 364 380 35 48 65 86 68 84 2 -2 14 -91 28
-197 14 -106 26 -195 28 -197 4 -3 148 15 153 20 1 1 -18 160 -42 352 -24 193
-44 356 -44 363 0 6 -3 12 -7 11 -5 0 -168 -41 -363 -91z"/>
<path d="M240 1347 c-49 -16 -133 -102 -148 -153 -17 -58 -17 -890 0 -948 16
-55 99 -138 154 -154 58 -17 890 -17 948 0 55 16 138 99 154 154 17 58 17 890
0 946 -6 22 -31 62 -55 88 -72 81 -69 80 -577 79 -291 -1 -453 -5 -476 -12z
m935 -172 l25 -24 0 -431 0 -431 -25 -24 -24 -25 -431 0 -431 0 -24 25 -25 24
0 431 0 431 25 24 24 25 431 0 431 0 24 -25z"/>
<path d="M768 803 l-208 -208 -48 48 c-26 26 -52 47 -58 47 -13 0 -104 -93
-104 -106 0 -5 47 -56 105 -114 l105 -105 265 265 c146 146 265 270 265 275 0
13 -92 105 -105 105 -6 0 -103 -93 -217 -207z"/>
</g>
</svg>
