<?xml version="1.0" standalone="no"?>
<!DOCTYPE svg PUBLIC "-//W3C//DTD SVG 20010904//EN"
 "http://www.w3.org/TR/2001/REC-SVG-20010904/DTD/svg10.dtd">
<svg version="1.0" xmlns="http://www.w3.org/2000/svg"
 width="500.000000pt" height="500.000000pt" viewBox="0 0 500.000000 500.000000"
 preserveAspectRatio="xMidYMid meet">

<g transform="translate(-50.000000,575.000000) scale(0.050000,-0.0500000)"
fill="#0992e1" stroke="none">
<path d="M8855 9169 c-647 -52 -1407 -386 -1815 -799 -157 -158 -290 -360
-339 -512 -7 -21 -16 -38 -20 -38 -12 0 -77 146 -97 214 l-17 60 -19 -37 c-45
-88 -118 -349 -118 -422 0 -39 -15 -30 -38 23 -30 70 -41 127 -42 210 l0 73
-122 -103 c-162 -136 -378 -328 -453 -403 -110 -110 -155 -225 -205 -520 -17
-99 -33 -181 -35 -183 -7 -8 -65 92 -86 147 -11 31 -23 86 -26 123 l-6 67 -60
-47 c-84 -66 -304 -278 -405 -392 -316 -354 -558 -798 -658 -1205 -30 -123
-54 -302 -54 -398 l0 -72 43 45 c23 25 128 140 232 255 885 977 1880 1969
2460 2451 414 345 734 561 984 664 112 46 118 36 11 -18 -649 -326 -1706
-1318 -3031 -2847 -240 -277 -295 -342 -544 -640 -87 -104 -213 -252 -279
-329 -238 -273 -522 -639 -789 -1017 l-46 -67 82 18 c45 10 116 26 157 35 l76
16 394 525 394 524 51 -7 c100 -15 314 -7 435 16 436 85 928 347 1226 653 96
98 414 451 410 455 -1 2 -29 -2 -62 -9 -123 -24 -479 -4 -478 27 1 6 93 45
205 87 467 177 690 319 1025 653 254 253 400 437 829 1045 114 162 211 300
216 305 5 7 -14 11 -59 12 -81 0 -169 18 -231 45 l-46 21 113 22 c124 25 258
69 367 119 l70 32 -145 13 c-239 20 -238 20 -128 47 248 63 445 215 641 496
45 65 139 216 209 335 108 185 125 219 110 224 -34 13 -179 17 -287 8z"/>


</g>
</svg>
