<?xml version="1.0" standalone="no"?>
<!DOCTYPE svg PUBLIC "-//W3C//DTD SVG 20010904//EN"
 "http://www.w3.org/TR/2001/REC-SVG-20010904/DTD/svg10.dtd">
<svg version="1.0" xmlns="http://www.w3.org/2000/svg"
 width="3534.000000pt" height="642.000000pt" viewBox="0 0 3534.000000 642.000000"
 preserveAspectRatio="xMidYMid meet">

<g transform="translate(0.000000,642.000000) scale(0.100000,-0.100000)"
fill="#000000" stroke="none">
<path fill="#0992e1" d="M6135 6149 c-647 -52 -1407 -386 -1815 -799 -157 -158 -290 -360
-339 -512 -7 -21 -16 -38 -20 -38 -12 0 -77 146 -97 214 l-17 60 -19 -37 c-45
-88 -118 -349 -118 -422 0 -39 -15 -30 -38 23 -30 70 -41 127 -42 210 l0 73
-122 -103 c-162 -136 -378 -328 -453 -403 -110 -110 -155 -225 -205 -520 -17
-99 -33 -181 -35 -183 -7 -8 -65 92 -86 147 -11 31 -23 86 -26 123 l-6 67 -60
-47 c-84 -66 -304 -278 -405 -392 -316 -354 -558 -798 -658 -1205 -30 -123
-54 -302 -54 -398 l0 -72 43 45 c23 25 128 140 232 255 885 977 1880 1969
2460 2451 414 345 734 561 984 664 112 46 118 36 11 -18 -649 -326 -1706
-1318 -3031 -2847 -240 -277 -295 -342 -544 -640 -87 -104 -213 -252 -279
-329 -238 -273 -522 -639 -789 -1017 l-46 -67 82 18 c45 10 116 26 157 35 l76
16 394 525 394 524 51 -7 c100 -15 314 -7 435 16 436 85 928 347 1226 653 96
98 414 451 410 455 -1 2 -29 -2 -62 -9 -123 -24 -479 -4 -478 27 1 6 93 45
205 87 467 177 690 319 1025 653 254 253 400 437 829 1045 114 162 211 300
216 305 5 7 -14 11 -59 12 -81 0 -169 18 -231 45 l-46 21 113 22 c124 25 258
69 367 119 l70 32 -145 13 c-239 20 -238 20 -128 47 248 63 445 215 641 496
45 65 139 216 209 335 108 185 125 219 110 224 -34 13 -179 17 -287 8z"/>
<path fill="#000000" d="M10226 5119 c-519 -35 -883 -228 -1074 -570 -159 -283 -174 -725 -36
-1002 89 -177 254 -345 461 -471 109 -65 241 -121 523 -221 288 -102 501 -197
584 -262 68 -53 96 -108 96 -192 -1 -149 -80 -227 -286 -282 -113 -31 -412
-38 -574 -15 -225 33 -489 108 -622 179 -43 22 -79 39 -81 36 -6 -7 -297 -755
-297 -762 0 -13 116 -65 221 -100 308 -103 669 -159 1029 -161 475 -2 776 71
1047 253 254 171 405 422 448 744 37 290 -2 526 -120 709 -66 101 -229 261
-345 337 -109 71 -277 155 -400 200 -460 167 -566 211 -705 292 -129 76 -175
138 -175 238 0 63 13 97 53 139 85 90 238 128 477 119 328 -13 608 -79 793
-189 38 -22 73 -36 77 -32 10 11 293 755 288 759 -14 12 -197 98 -254 118
-197 71 -494 121 -808 137 -105 5 -193 9 -196 8 -3 0 -58 -4 -124 -9z"/>
<path fill="#000000" d="M13460 5120 c-232 -15 -453 -72 -645 -165 -319 -155 -527 -365 -685
-690 -142 -292 -205 -568 -217 -955 -9 -289 18 -546 83 -802 122 -483 408
-847 824 -1050 434 -211 1068 -222 1530 -27 633 269 980 897 980 1774 0 639
-169 1124 -509 1466 -294 295 -640 433 -1136 452 -60 3 -162 1 -225 -3z m328
-816 c124 -25 231 -82 322 -172 157 -157 236 -360 271 -697 15 -147 7 -469
-15 -610 -64 -405 -227 -616 -546 -707 -73 -20 -342 -17 -413 5 -290 90 -452
314 -528 732 -19 103 -22 156 -22 370 0 266 15 392 64 559 77 258 237 432 463
506 98 32 286 38 404 14z"/>
<path fill="#000000" d="M23685 5100 c-314 -9 -540 -22 -687 -42 l-88 -12 0 -1838 c0 -1462 3
-1839 13 -1843 6 -2 62 -9 122 -14 247 -23 561 -35 920 -36 417 0 502 7 740
65 202 48 399 132 579 244 298 188 545 497 664 831 100 281 146 634 124 952
-23 329 -77 552 -192 788 -176 362 -459 609 -880 768 -323 122 -635 155 -1315
137z m745 -824 c113 -27 175 -51 254 -100 162 -101 257 -207 336 -371 82 -169
115 -342 114 -595 -2 -496 -160 -817 -484 -984 -178 -92 -364 -123 -666 -110
l-174 7 0 1083 c0 1022 1 1083 18 1088 9 2 132 3 272 2 198 -3 272 -7 330 -20z"/>
<path fill="#000000" d="M27370 5054 c-6 -15 -328 -844 -716 -1843 -389 -999 -709 -1824 -711
-1834 -5 -16 19 -17 448 -15 l453 3 36 95 c20 52 85 222 145 378 l107 282 547
0 547 0 153 -380 154 -380 474 0 c448 0 475 1 469 17 -3 10 -329 847 -724
1860 l-717 1842 -328 1 -327 0 -10 -26z m355 -1409 c20 -95 59 -217 146 -453
65 -178 119 -326 119 -328 0 -2 -133 -4 -296 -4 -277 0 -296 1 -291 18 2 9 54
152 114 317 66 180 119 342 132 405 28 130 41 183 45 179 2 -2 16 -62 31 -134z"/>
<path fill="#000000" d="M32868 4833 c-73 -187 -1319 -3394 -1345 -3460 -4 -10 90 -13 449
-13 l454 0 134 352 c73 194 140 365 147 381 l14 27 545 -2 546 -3 151 -377
152 -378 476 0 477 0 -192 492 c-106 271 -433 1108 -726 1861 l-533 1367 -327
0 -327 0 -95 -247z m442 -1196 c21 -98 62 -224 148 -456 l119 -321 -299 0
c-282 0 -300 1 -293 18 113 290 231 639 256 755 16 76 29 141 29 144 0 27 15
-25 40 -140z"/>
<path fill="#000000" d="M15720 3210 l0 -1850 450 0 450 0 0 705 0 705 705 0 705 0 0 400 0
400 -705 0 -705 0 0 340 0 340 765 0 765 0 0 405 0 405 -1215 0 -1215 0 0
-1850z"/>
<path fill="#000000" d="M18240 4655 l0 -405 565 0 565 0 0 -1445 0 -1445 445 0 445 0 0 1445
0 1445 565 0 565 0 0 405 0 405 -1575 0 -1575 0 0 -405z"/>
<path fill="#000000" d="M28930 4655 l0 -405 560 0 560 0 0 -1445 0 -1445 450 0 450 0 0 1445
0 1445 560 0 560 0 0 405 0 405 -1570 0 -1570 0 0 -405z"/>
<path fill="#000000" d="M20900 2895 l0 -385 765 0 765 0 0 385 0 385 -765 0 -765 0 0 -385z"/>
<path fill="#000000" d="M5110 1494 c-283 -23 -370 -38 -550 -94 -142 -44 -196 -75 -234 -133
-71 -110 0 -195 201 -243 53 -13 116 -17 293 -16 124 0 257 4 295 9 55 7 20 9
-165 10 -276 1 -382 13 -481 53 -84 34 -119 63 -119 100 0 99 286 191 700 226
233 19 650 15 795 -9 174 -29 363 -87 438 -134 57 -36 124 -106 142 -149 22
-53 19 -139 -7 -192 -12 -25 -51 -77 -87 -116 -61 -65 -63 -68 -18 -32 62 51
134 147 148 199 42 157 -79 316 -310 407 -92 36 -220 70 -346 92 -97 16 -171
21 -385 23 -146 1 -285 1 -310 -1z"/>
<path fill="#000000" d="M5735 519 c-173 -50 -313 -78 -525 -104 -739 -90 -1361 -104 -2565
-56 -343 14 -752 23 -1160 25 -346 2 -594 2 -550 0 230 -11 931 -48 1300 -69
808 -47 1348 -61 1765 -46 606 22 900 53 1365 146 159 32 442 106 475 126 24
13 2 9 -105 -22z"/>
</g>
</svg>
