<?xml version="1.0" encoding="UTF-8"?>
<!DOCTYPE svg PUBLIC "-//W3C//DTD SVG 1.1//EN" "http://www.w3.org/Graphics/SVG/1.1/DTD/svg11.dtd">
<!-- Creator: CorelDRAW -->
<svg xmlns="http://www.w3.org/2000/svg" xml:space="preserve" width="224.014mm" height="123.472mm" style="shape-rendering:geometricPrecision; text-rendering:geometricPrecision; image-rendering:optimizeQuality; fill-rule:evenodd; clip-rule:evenodd"
viewBox="0 0 224.014 123.472"
 xmlns:xlink="http://www.w3.org/1999/xlink">
 <defs>
  <style type="text/css">
   <![CDATA[
    .str1 {stroke:#1F1A17;stroke-width:0.5}
    .str0 {stroke:#CB262D;stroke-width:1.5}
    .fil4 {fill:none}
    .fil1 {fill:white}
    .fil3 {fill:#969593}
    .fil0 {fill:#CB262D}
    .fil2 {fill:#1F1A17;fill-rule:nonzero}
   ]]>
  </style>
 </defs>
 <g id="Warstwa_x0020_1">
  <metadata id="CorelCorpID_0Corel-Layer"/>
  <rect class="fil0 str0" x="-0.0835124" y="0.640691" width="224.097" height="123.075"/>
  <rect class="fil1" x="1.05829" y="1.0583" width="221.897" height="66.5989"/>
  <path class="fil2" d="M12.5599 13.5697l0 -1.1306 3.0016 -0.0068 0 3.5806c-0.4604,0.5012 -0.9357,0.8766 -1.4257,1.1306 -0.4901,0.2517 -0.9933,0.3776 -1.5082,0.3776 -0.6963,0 -1.33,-0.2023 -1.8976,-0.6091 -0.5693,-0.4046 -0.9983,-0.9935 -1.2887,-1.76 -0.2904,-0.7687 -0.4356,-1.6273 -0.4356,-2.5758 0,-0.9396 0.1452,-1.8162 0.434,-2.6298 0.287,-0.8159 0.7029,-1.4205 1.2441,-1.8161 0.5412,-0.3934 1.165,-0.5912 1.8712,-0.5912 0.5116,0 0.9752,0.1124 1.3894,0.3394 0.4142,0.2248 0.7392,0.5395 0.9736,0.944 0.2359,0.4046 0.4141,0.9306 0.5379,1.5802l-0.8466 0.3169c-0.1072,-0.4923 -0.2392,-0.8789 -0.396,-1.1598 -0.1584,-0.281 -0.3844,-0.5057 -0.6781,-0.6743 -0.2921,-0.1686 -0.6188,-0.254 -0.9753,-0.254 -0.429,0 -0.8002,0.0899 -1.1121,0.2675 -0.3135,0.1775 -0.5643,0.4113 -0.7574,0.7012 -0.1914,0.29 -0.3399,0.6069 -0.4471,0.9553 -0.1799,0.5956 -0.2706,1.243 -0.2706,1.942 0,0.8609 0.1088,1.5801 0.3266,2.16 0.2179,0.5799 0.5346,1.0092 0.9505,1.2902 0.4158,0.281 0.8564,0.4226 1.3234,0.4226 0.4075,0 0.8035,-0.1079 1.1897,-0.3215 0.3877,-0.2112 0.6798,-0.4382 0.8795,-0.681l0 -1.7981 -2.0825 0z"/>
  <polygon id="1" class="fil2" points="16.8815,13.6371 16.1802,14.4463 16.1802,13.3471 16.8815,12.5312 16.8815,7.7032 17.8187,7.7032 17.8187,11.4433 19.4242,9.5935 19.4242,10.6926 17.8187,12.5425 17.8187,16.2174 21.3384,16.2174 21.3384,17.357 16.8815,17.357 "/>
  <path id="12" class="fil2" d="M22.165 12.6548c0,-1.6026 0.3152,-2.8568 0.9472,-3.7626 0.632,-0.9058 1.4471,-1.3598 2.447,-1.3598 0.6535,0 1.2442,0.2135 1.7689,0.6383 0.5248,0.4271 0.9257,1.0205 1.2013,1.7824 0.2756,0.7597 0.4125,1.6251 0.4125,2.5894 0,0.98 -0.1436,1.8565 -0.434,2.6275 -0.2904,0.7732 -0.7012,1.3576 -1.2326,1.7554 -0.5329,0.3979 -1.1055,0.5957 -1.721,0.5957 -0.6683,0 -1.264,-0.218 -1.7887,-0.6586 -0.5263,-0.4383 -0.924,-1.0384 -1.1946,-1.7981 -0.2707,-0.7575 -0.406,-1.5622 -0.406,-2.4096zm0.967 0.0203c0,1.1643 0.2293,2.0791 0.6881,2.7489 0.4604,0.6698 1.0362,1.0047 1.7292,1.0047 0.7063,0 1.2871,-0.3371 1.7425,-1.0137 0.4554,-0.6766 0.6848,-1.6363 0.6848,-2.8793 0,-0.7844 -0.099,-1.47 -0.2937,-2.0566 -0.1947,-0.5867 -0.4802,-1.0407 -0.8547,-1.3644 -0.3763,-0.3214 -0.797,-0.4832 -1.264,-0.4832 -0.665,0 -1.2359,0.3102 -1.7144,0.9328 -0.4786,0.6203 -0.7178,1.6588 -0.7178,3.1108zm1.8266 -5.5653l0.6436 -1.8431 1.1402 0 -1.0627 1.8431 -0.7211 0z"/>
  <path id="123" class="fil2" d="M31.3889 17.357l-1.881 -9.6538 0.962 0 1.0791 6.3272c0.1155,0.6631 0.2145,1.3217 0.2987,1.9757 0.1815,-1.0316 0.2871,-1.625 0.3201,-1.7846l1.3481 -6.5183 1.132 0 1.0147 4.8865c0.2542,1.2115 0.4374,2.351 0.5512,3.4164 0.0891,-0.6091 0.2079,-1.3104 0.3531,-2.0993l1.1105 -6.2036 0.9438 0 -1.9437 9.6538 -0.9043 0 -1.4933 -7.3544c-0.1254,-0.6159 -0.1997,-0.9935 -0.2228,-1.1329 -0.0742,0.4428 -0.1435,0.8205 -0.2079,1.1329l-1.5032 7.3544 -0.9571 0z"/>
  <polygon id="1234" class="fil2" points="39.4859,17.357 39.4859,7.7032 40.4479,7.7032 44.1705,15.2824 44.1705,7.7032 45.0698,7.7032 45.0698,17.357 44.1078,17.357 40.3852,9.7711 40.3852,17.357 "/>
  <path id="12345" class="fil2" d="M48.6422 17.357l0 -4.0885 -2.7309 -5.5653 1.1402 0 1.3976 2.9107c0.2574,0.544 0.4967,1.0879 0.7195,1.6341 0.2128,-0.5057 0.4703,-1.0744 0.7738,-1.706l1.3729 -2.8388 1.0924 0 -2.8282 5.5653 0 4.0885 -0.9373 0z"/>
  <path id="123456" class="fil2" d="M60.4717 7.7032l0.9389 0 0 5.5788c0,0.9687 -0.0809,1.7397 -0.2425,2.3106 -0.1617,0.5709 -0.4522,1.0339 -0.873,1.3913 -0.4207,0.3596 -0.9718,0.5372 -1.655,0.5372 -0.6633,0 -1.2078,-0.1551 -1.6286,-0.4675 -0.4224,-0.3102 -0.7244,-0.762 -0.9043,-1.3531 -0.1814,-0.5912 -0.2706,-1.3959 -0.2706,-2.4185l0 -5.5788 0.9373 0 0 5.572c0,0.8384 0.0578,1.4565 0.1716,1.8521 0.1138,0.3978 0.3119,0.7035 0.5891,0.9193 0.2788,0.2158 0.6204,0.3237 1.023,0.3237 0.6898,0 1.1815,-0.2136 1.4752,-0.6406 0.2921,-0.4248 0.4389,-1.243 0.4389,-2.4545l0 -5.572z"/>
  <path id="1234567" class="fil2" d="M62.9864 17.357l0 -9.6538 3.1418 0c0.632,0 1.1121,0.0877 1.4405,0.2607 0.3284,0.1731 0.5908,0.4788 0.7888,0.9171 0.1963,0.4405 0.2937,0.926 0.2937,1.4565 0,0.6855 -0.1618,1.2609 -0.4884,1.7307 -0.3251,0.4698 -0.8284,0.7687 -1.5082,0.8968 0.2491,0.1619 0.4372,0.3214 0.566,0.481 0.2739,0.3417 0.533,0.771 0.7788,1.2835l1.2326 2.6275 -1.1798 0 -0.9373 -2.0094c-0.2739,-0.5777 -0.4999,-1.0227 -0.6781,-1.3284 -0.1766,-0.3079 -0.335,-0.5237 -0.4752,-0.6451 -0.1403,-0.1236 -0.2822,-0.209 -0.4275,-0.2585 -0.1072,-0.0292 -0.2805,-0.0449 -0.523,-0.0449l-1.0874 0 0 4.2863 -0.9373 0zm0.9373 -5.3922l2.0164 0c0.4274,0 0.764,-0.0607 1.0049,-0.1821 0.2425,-0.1213 0.4257,-0.3146 0.5511,-0.5799 0.1254,-0.2652 0.1882,-0.5529 0.1882,-0.8653 0,-0.4563 -0.1205,-0.8317 -0.3648,-1.1261 -0.2425,-0.2945 -0.627,-0.4406 -1.1533,-0.4406l-2.2425 0 0 3.194z"/>
  <path id="12345678" class="fil2" d="M69.5554 17.357l0 -1.1845 3.6302 -6.1834c0.259,-0.4406 0.5033,-0.8227 0.7359,-1.1463l-3.9552 0 0 -1.1396 5.0757 0 0 1.1396 -3.9784 6.6958 -0.4307 0.6788 4.5262 0 0 1.1396 -5.6037 0z"/>
  <path id="123456789" class="fil2" d="M75.3902 17.357l2.7226 -9.6538 1.0098 0 2.9009 9.6538 -1.0692 0 -0.8267 -2.9242 -2.9636 0 -0.7772 2.9242 -0.9966 0zm2.0444 -3.9649l2.4042 0 -0.7409 -2.6725c-0.2244,-0.8114 -0.3927,-1.479 -0.5017,-2.0027 -0.0907,0.6204 -0.2178,1.234 -0.3827,1.8454l-0.7789 2.8298zm3.5345 3.7424l0.6006 0c-0.127,0.3911 -0.1897,0.7507 -0.1897,1.0789 0,0.2989 0.066,0.5394 0.198,0.7237 0.132,0.1843 0.2986,0.2765 0.4983,0.2765 0.2492,0 0.5198,-0.0989 0.8118,-0.3012l0 0.7822c-0.1666,0.1191 -0.3498,0.2158 -0.5461,0.2899 -0.1964,0.0742 -0.3663,0.1124 -0.5116,0.1124 -0.3201,0 -0.5759,-0.1326 -0.7689,-0.3956 -0.1931,-0.2629 -0.2904,-0.6158 -0.2904,-1.0586 0,-0.3776 0.066,-0.8811 0.198,-1.5082z"/>
  <path id="12345678910" class="fil2" d="M82.7726 17.357l0 -9.6538 2.4405 0c0.5511,0 0.9719,0.0472 1.2623,0.1394 0.4059,0.1258 0.7524,0.3573 1.0395,0.69 0.373,0.4316 0.6535,0.98 0.8382,1.6498 0.1865,0.6698 0.2789,1.434 0.2789,2.2949 0,0.7327 -0.0627,1.3823 -0.1897,1.9487 -0.1254,0.5664 -0.2855,1.0362 -0.4835,1.4071 -0.1963,0.3708 -0.4108,0.663 -0.6452,0.8743 -0.2326,0.2135 -0.5148,0.3754 -0.8448,0.4855 -0.3317,0.1102 -0.7112,0.1641 -1.1386,0.1641l-2.5576 0zm0.9373 -1.1396l1.5131 0c0.467,0 0.8349,-0.0584 1.1006,-0.1775 0.2657,-0.1192 0.4769,-0.2855 0.6353,-0.5013 0.2227,-0.3012 0.396,-0.7102 0.5197,-1.2205 0.1237,-0.5124 0.1865,-1.1306 0.1865,-1.861 0,-1.0093 -0.1221,-1.7847 -0.3647,-2.3264 -0.2442,-0.5439 -0.5396,-0.9058 -0.8877,-1.0901 -0.2509,-0.1326 -0.6568,-0.1978 -1.2129,-0.1978l-1.4899 0 0 7.3746z"/>
  <path id="1234567891011" class="fil2" d="M95.9897 13.5697l0 -1.1306 3.0016 -0.0068 0 3.5806c-0.4604,0.5012 -0.9357,0.8766 -1.4257,1.1306 -0.4901,0.2517 -0.9933,0.3776 -1.5082,0.3776 -0.6963,0 -1.33,-0.2023 -1.8976,-0.6091 -0.5693,-0.4046 -0.9983,-0.9935 -1.2887,-1.76 -0.2904,-0.7687 -0.4356,-1.6273 -0.4356,-2.5758 0,-0.9396 0.1452,-1.8162 0.434,-2.6298 0.287,-0.8159 0.7029,-1.4205 1.2441,-1.8161 0.5412,-0.3934 1.165,-0.5912 1.8712,-0.5912 0.5116,0 0.9752,0.1124 1.3894,0.3394 0.4142,0.2248 0.7392,0.5395 0.9736,0.944 0.2359,0.4046 0.4141,0.9306 0.5379,1.5802l-0.8466 0.3169c-0.1072,-0.4923 -0.2392,-0.8789 -0.396,-1.1598 -0.1584,-0.281 -0.3844,-0.5057 -0.6781,-0.6743 -0.2921,-0.1686 -0.6188,-0.254 -0.9753,-0.254 -0.429,0 -0.8002,0.0899 -1.1121,0.2675 -0.3135,0.1775 -0.5643,0.4113 -0.7574,0.7012 -0.1914,0.29 -0.3399,0.6069 -0.4471,0.9553 -0.1799,0.5956 -0.2706,1.243 -0.2706,1.942 0,0.8609 0.1088,1.5801 0.3266,2.16 0.2179,0.5799 0.5346,1.0092 0.9505,1.2902 0.4158,0.281 0.8564,0.4226 1.3234,0.4226 0.4075,0 0.8035,-0.1079 1.1897,-0.3215 0.3877,-0.2112 0.6798,-0.4382 0.8795,-0.681l0 -1.7981 -2.0825 0z"/>
  <polygon id="123456789101112" class="fil2" points="100.394,17.357 100.394,7.7032 105.517,7.7032 105.517,8.8428 101.331,8.8428 101.331,11.7985 105.252,11.7985 105.252,12.9313 101.331,12.9313 101.331,16.2174 105.682,16.2174 105.682,17.357 "/>
  <path id="12345678910111213" class="fil2" d="M106.692 12.6548c0,-1.6026 0.3152,-2.8568 0.9472,-3.7626 0.632,-0.9058 1.4471,-1.3598 2.447,-1.3598 0.6535,0 1.2442,0.2135 1.7689,0.6383 0.5248,0.4271 0.9257,1.0205 1.2013,1.7824 0.2756,0.7597 0.4125,1.6251 0.4125,2.5894 0,0.98 -0.1436,1.8565 -0.434,2.6275 -0.2904,0.7732 -0.7012,1.3576 -1.2326,1.7554 -0.5329,0.3979 -1.1055,0.5957 -1.721,0.5957 -0.6683,0 -1.264,-0.218 -1.7887,-0.6586 -0.5263,-0.4383 -0.924,-1.0384 -1.1946,-1.7981 -0.2707,-0.7575 -0.406,-1.5622 -0.406,-2.4096zm0.967 0.0203c0,1.1643 0.2293,2.0791 0.6881,2.7489 0.4604,0.6698 1.0362,1.0047 1.7292,1.0047 0.7063,0 1.2871,-0.3371 1.7425,-1.0137 0.4554,-0.6766 0.6848,-1.6363 0.6848,-2.8793 0,-0.7844 -0.099,-1.47 -0.2937,-2.0566 -0.1947,-0.5867 -0.4802,-1.0407 -0.8547,-1.3644 -0.3763,-0.3214 -0.797,-0.4832 -1.264,-0.4832 -0.665,0 -1.2359,0.3102 -1.7144,0.9328 -0.4786,0.6203 -0.7178,1.6588 -0.7178,3.1108z"/>
  <path id="1234567891011121314" class="fil2" d="M114.679 17.357l0 -9.6538 2.4405 0c0.5511,0 0.9719,0.0472 1.2623,0.1394 0.4059,0.1258 0.7524,0.3573 1.0395,0.69 0.373,0.4316 0.6535,0.98 0.8382,1.6498 0.1865,0.6698 0.2789,1.434 0.2789,2.2949 0,0.7327 -0.0627,1.3823 -0.1897,1.9487 -0.1254,0.5664 -0.2855,1.0362 -0.4835,1.4071 -0.1963,0.3708 -0.4108,0.663 -0.6452,0.8743 -0.2326,0.2135 -0.5148,0.3754 -0.8448,0.4855 -0.3317,0.1102 -0.7112,0.1641 -1.1386,0.1641l-2.5576 0zm0.9373 -1.1396l1.5131 0c0.467,0 0.8349,-0.0584 1.1006,-0.1775 0.2657,-0.1192 0.4769,-0.2855 0.6353,-0.5013 0.2227,-0.3012 0.396,-0.7102 0.5197,-1.2205 0.1237,-0.5124 0.1865,-1.1306 0.1865,-1.861 0,-1.0093 -0.1221,-1.7847 -0.3647,-2.3264 -0.2442,-0.5439 -0.5396,-0.9058 -0.8877,-1.0901 -0.2509,-0.1326 -0.6568,-0.1978 -1.2129,-0.1978l-1.4899 0 0 7.3746z"/>
  <polygon id="123456789101112131415" class="fil2" points="121.848,17.357 121.848,7.7032 126.972,7.7032 126.972,8.8428 122.785,8.8428 122.785,11.7985 126.706,11.7985 126.706,12.9313 122.785,12.9313 122.785,16.2174 127.137,16.2174 127.137,17.357 "/>
  <path id="12345678910111213141516" class="fil2" d="M127.866 17.357l0 -1.1845 3.6302 -6.1834c0.259,-0.4406 0.5033,-0.8227 0.7359,-1.1463l-3.9552 0 0 -1.1396 5.0757 0 0 1.1396 -3.9784 6.6958 -0.4307 0.6788 4.5262 0 0 1.1396 -5.6037 0z"/>
  <path id="1234567891011121314151617" class="fil2" d="M134.001 14.6171l0.8465 -0.1574c0.0215,0.7373 0.1238,1.243 0.3037,1.515 0.1815,0.2719 0.4306,0.4068 0.7491,0.4068 0.236,0 0.4389,-0.0719 0.6089,-0.2203 0.1716,-0.1461 0.2888,-0.3461 0.3531,-0.5979 0.0644,-0.2539 0.0973,-0.6563 0.0973,-1.2092l0 -6.6509 0.9373 0 0 6.579c0,0.8069 -0.0709,1.434 -0.2145,1.8768 -0.1435,0.4428 -0.3713,0.7799 -0.6815,1.0137 -0.3119,0.2315 -0.6765,0.3484 -1.0956,0.3484 -0.6221,0 -1.0973,-0.2428 -1.429,-0.7305 -0.3301,-0.4878 -0.4884,-1.2115 -0.4753,-2.1735z"/>
  <polygon id="123456789101112131415161718" class="fil2" points="139.59,17.357 139.59,7.7032 140.527,7.7032 140.527,17.357 "/>
  <polygon id="12345678910111213141516171819" class="fil2" points="145.091,17.357 145.091,7.7032 146.029,7.7032 146.029,17.357 "/>
  <polygon id="1234567891011121314151617181920" class="fil2" points="150.393,17.357 150.393,7.7032 151.332,7.7032 151.332,12.4908 154.851,7.7032 156.122,7.7032 153.149,11.6142 156.253,17.357 155.015,17.357 152.492,12.4705 151.332,14.0124 151.332,17.357 "/>
  <path id="123456789101112131415161718192021" class="fil2" d="M156.257 17.357l2.7226 -9.6538 1.0098 0 2.9009 9.6538 -1.0692 0 -0.8267 -2.9242 -2.9636 0 -0.7772 2.9242 -0.9966 0zm2.0444 -3.9649l2.4042 0 -0.7409 -2.6725c-0.2244,-0.8114 -0.3927,-1.479 -0.5017,-2.0027 -0.0907,0.6204 -0.2178,1.234 -0.3827,1.8454l-0.7789 2.8298z"/>
  <path id="12345678910111213141516171819202122" class="fil2" d="M163.655 17.357l0 -9.6538 3.1418 0c0.632,0 1.1121,0.0877 1.4405,0.2607 0.3284,0.1731 0.5908,0.4788 0.7888,0.9171 0.1963,0.4405 0.2937,0.926 0.2937,1.4565 0,0.6855 -0.1618,1.2609 -0.4884,1.7307 -0.3251,0.4698 -0.8284,0.7687 -1.5082,0.8968 0.2491,0.1619 0.4372,0.3214 0.566,0.481 0.2739,0.3417 0.533,0.771 0.7788,1.2835l1.2326 2.6275 -1.1798 0 -0.9373 -2.0094c-0.2739,-0.5777 -0.4999,-1.0227 -0.6781,-1.3284 -0.1766,-0.3079 -0.335,-0.5237 -0.4752,-0.6451 -0.1403,-0.1236 -0.2822,-0.209 -0.4275,-0.2585 -0.1072,-0.0292 -0.2805,-0.0449 -0.523,-0.0449l-1.0874 0 0 4.2863 -0.9373 0zm0.9373 -5.3922l2.0164 0c0.4274,0 0.764,-0.0607 1.0049,-0.1821 0.2425,-0.1213 0.4257,-0.3146 0.5511,-0.5799 0.1254,-0.2652 0.1882,-0.5529 0.1882,-0.8653 0,-0.4563 -0.1205,-0.8317 -0.3648,-1.1261 -0.2425,-0.2945 -0.627,-0.4406 -1.1533,-0.4406l-2.2425 0 0 3.194z"/>
  <polygon id="1234567891011121314151617181920212223" class="fil2" points="172.415,17.357 172.415,8.8428 170.08,8.8428 170.08,7.7032 175.697,7.7032 175.697,8.8428 173.352,8.8428 173.352,17.357 "/>
  <path id="123456789101112131415161718192021222324" class="fil2" d="M176.195 12.6548c0,-1.6026 0.3152,-2.8568 0.9472,-3.7626 0.632,-0.9058 1.4471,-1.3598 2.447,-1.3598 0.6535,0 1.2442,0.2135 1.7689,0.6383 0.5248,0.4271 0.9257,1.0205 1.2013,1.7824 0.2756,0.7597 0.4125,1.6251 0.4125,2.5894 0,0.98 -0.1436,1.8565 -0.434,2.6275 -0.2904,0.7732 -0.7012,1.3576 -1.2326,1.7554 -0.5329,0.3979 -1.1055,0.5957 -1.721,0.5957 -0.6683,0 -1.264,-0.218 -1.7887,-0.6586 -0.5263,-0.4383 -0.924,-1.0384 -1.1946,-1.7981 -0.2707,-0.7575 -0.406,-1.5622 -0.406,-2.4096zm0.967 0.0203c0,1.1643 0.2293,2.0791 0.6881,2.7489 0.4604,0.6698 1.0362,1.0047 1.7292,1.0047 0.7063,0 1.2871,-0.3371 1.7425,-1.0137 0.4554,-0.6766 0.6848,-1.6363 0.6848,-2.8793 0,-0.7844 -0.099,-1.47 -0.2937,-2.0566 -0.1947,-0.5867 -0.4802,-1.0407 -0.8547,-1.3644 -0.3763,-0.3214 -0.797,-0.4832 -1.264,-0.4832 -0.665,0 -1.2359,0.3102 -1.7144,0.9328 -0.4786,0.6203 -0.7178,1.6588 -0.7178,3.1108z"/>
  <path id="12345678910111213141516171819202122232425" class="fil2" d="M187.498 13.5697l0 -1.1306 3.0016 -0.0068 0 3.5806c-0.4604,0.5012 -0.9357,0.8766 -1.4257,1.1306 -0.4901,0.2517 -0.9933,0.3776 -1.5082,0.3776 -0.6963,0 -1.33,-0.2023 -1.8976,-0.6091 -0.5693,-0.4046 -0.9983,-0.9935 -1.2887,-1.76 -0.2904,-0.7687 -0.4356,-1.6273 -0.4356,-2.5758 0,-0.9396 0.1452,-1.8162 0.434,-2.6298 0.287,-0.8159 0.7029,-1.4205 1.2441,-1.8161 0.5412,-0.3934 1.165,-0.5912 1.8712,-0.5912 0.5116,0 0.9752,0.1124 1.3894,0.3394 0.4142,0.2248 0.7392,0.5395 0.9736,0.944 0.2359,0.4046 0.4141,0.9306 0.5379,1.5802l-0.8466 0.3169c-0.1072,-0.4923 -0.2392,-0.8789 -0.396,-1.1598 -0.1584,-0.281 -0.3844,-0.5057 -0.6781,-0.6743 -0.2921,-0.1686 -0.6188,-0.254 -0.9753,-0.254 -0.429,0 -0.8002,0.0899 -1.1121,0.2675 -0.3135,0.1775 -0.5643,0.4113 -0.7574,0.7012 -0.1914,0.29 -0.3399,0.6069 -0.4471,0.9553 -0.1799,0.5956 -0.2706,1.243 -0.2706,1.942 0,0.8609 0.1088,1.5801 0.3266,2.16 0.2179,0.5799 0.5346,1.0092 0.9505,1.2902 0.4158,0.281 0.8564,0.4226 1.3234,0.4226 0.4075,0 0.8035,-0.1079 1.1897,-0.3215 0.3877,-0.2112 0.6798,-0.4382 0.8795,-0.681l0 -1.7981 -2.0825 0z"/>
  <path id="1234567891011121314151617181920212223242526" class="fil2" d="M191.898 17.357l0 -9.6538 3.1418 0c0.632,0 1.1121,0.0877 1.4405,0.2607 0.3284,0.1731 0.5908,0.4788 0.7888,0.9171 0.1963,0.4405 0.2937,0.926 0.2937,1.4565 0,0.6855 -0.1618,1.2609 -0.4884,1.7307 -0.3251,0.4698 -0.8284,0.7687 -1.5082,0.8968 0.2491,0.1619 0.4372,0.3214 0.566,0.481 0.2739,0.3417 0.533,0.771 0.7788,1.2835l1.2326 2.6275 -1.1798 0 -0.9373 -2.0094c-0.2739,-0.5777 -0.4999,-1.0227 -0.6781,-1.3284 -0.1766,-0.3079 -0.335,-0.5237 -0.4752,-0.6451 -0.1403,-0.1236 -0.2822,-0.209 -0.4275,-0.2585 -0.1072,-0.0292 -0.2805,-0.0449 -0.523,-0.0449l-1.0874 0 0 4.2863 -0.9373 0zm0.9373 -5.3922l2.0164 0c0.4274,0 0.764,-0.0607 1.0049,-0.1821 0.2425,-0.1213 0.4257,-0.3146 0.5511,-0.5799 0.1254,-0.2652 0.1882,-0.5529 0.1882,-0.8653 0,-0.4563 -0.1205,-0.8317 -0.3648,-1.1261 -0.2425,-0.2945 -0.627,-0.4406 -1.1533,-0.4406l-2.2425 0 0 3.194z"/>
  <path id="123456789101112131415161718192021222324252627" class="fil2" d="M198.254 17.357l2.7226 -9.6538 1.0098 0 2.9009 9.6538 -1.0692 0 -0.8267 -2.9242 -2.9636 0 -0.7772 2.9242 -0.9966 0zm2.0444 -3.9649l2.4042 0 -0.7409 -2.6725c-0.2244,-0.8114 -0.3927,-1.479 -0.5017,-2.0027 -0.0907,0.6204 -0.2178,1.234 -0.3827,1.8454l-0.7789 2.8298z"/>
  <polygon id="12345678910111213141516171819202122232425262728" class="fil2" points="205.684,17.357 205.684,7.7032 210.466,7.7032 210.466,8.8428 206.623,8.8428 206.623,11.8322 209.948,11.8322 209.948,12.9718 206.623,12.9718 206.623,17.357 "/>
  <polygon id="1234567891011121314151617181920212223242526272829" class="fil2" points="211.844,17.357 211.844,7.7032 212.781,7.7032 212.781,17.357 "/>
  <polygon id="123456789101112131415161718192021222324252627282930" class="fil2" points="214.594,17.357 214.594,7.7032 215.532,7.7032 215.532,17.357 "/>
 </g>
 <g id="Warstwa_x0020_2">
  <metadata id="CorelCorpID_1Corel-Layer"/>
  <ellipse class="fil1 str1" cx="110.999" cy="67.1815" rx="97.4311" ry="45.4513"/>
  <polygon id="PL" class="fil3" points="107.078,34.9682 106.619,35.0163 105.807,34.9843 104.994,35.0644 104.341,35.1766 103.546,35.2406 99.7311,35.6892 98.9186,36.0738 98.4242,36.5224 98.4242,36.5545 97.8943,36.7627 97.1525,36.8268 96.605,36.923 96.1281,37.0031 95.3334,37.1473 94.9271,37.5479 94.3973,38.0446 93.8674,38.4611 93.7262,38.6213 93.8144,38.8136 93.7968,38.9899 93.7791,39.0219 93.6202,39.2142 93.4259,39.3103 92.8607,39.3584 92.7547,39.4866 92.949,39.8711 92.7547,40.1114 92.2779,40.0794 92.1012,39.6788 92.013,39.5026 91.1475,39.775 90.2291,40.0153 89.6286,40.1915 88.9045,40.2076 88.2157,40.3518 87.4915,40.3999 86.891,40.464 85.7077,40.3999 85.4075,40.5601 84.86,40.8004 84.3654,40.9446 83.9062,41.1208 83.5883,41.0567 82.9348,41.1048 81.8575,41.3131 81.1863,41.6656 80.6035,41.7297 80.2149,41.8098 79.8087,41.8259 79.4555,41.6336 79.1729,41.4574 78.802,41.217 78.1838,40.8004 77.9895,40.4319 77.5656,40.1275 77.2831,40.1595 77.5127,40.5281 77.1947,40.8645 76.7356,41.3772 76.4353,41.7778 76.3823,42.0181 76.4883,42.1303 76.9122,42.1783 77.5656,42.1783 78.1485,42.1623 78.484,42.3065 78.8903,42.4988 79.1375,42.7071 79.1729,43.0276 79.3848,43.2198 79.6321,42.9154 80.0559,42.675 80.6565,42.8032 81.0803,42.9314 81.31,43.1237 81.31,43.4121 81.098,43.6684 80.7625,43.9088 80.4445,44.0049 80.4798,44.4536 80.4445,44.7099 80.0559,44.6458 79.6321,44.4695 79.1375,44.2773 78.9079,44.0369 78.855,44.2292 78.3781,44.4695 78.4664,45.0464 78.4135,45.5911 78.5017,46.184 78.484,46.6646 78.484,46.6967 78.5547,47.1774 78.6607,47.5939 78.8373,48.2188 78.8197,48.6514 78.5194,49.2122 78.3781,49.725 78.2545,50.2216 78.1309,50.5421 77.6893,51.0227 77.4067,51.3752 77.1947,51.5996 76.8416,51.7438 76.3823,51.8399 76.1174,52.0161 76.2587,52.3527 76.0997,52.6731 75.7642,53.1538 75.7288,53.3941 76.135,53.6665 76.453,53.8427 76.8769,54.2593 77.1065,54.5477 77.3184,55.0764 77.8482,55.6212 78.3075,55.9096 78.59,56.2621 78.7313,56.4704 78.749,56.919 78.5547,57.3356 78.3604,57.608 78.0249,57.9605 77.9013,58.1207 77.8836,58.1207 77.7069,58.361 77.7246,58.7936 77.9189,59.2903 78.1132,59.5788 78.6607,59.6268 78.6784,60.0755 78.6784,60.3639 78.5017,60.7324 78.3958,61.0849 78.3251,61.3412 78.3251,61.5495 78.9079,61.7418 79.0493,61.7738 79.0139,62.559 78.749,62.4949 78.5371,62.9916 78.4664,63.6004 78.2191,63.6485 77.601,63.9209 77.4067,64.1612 77.1241,64.8021 77.4597,65.3308 77.9895,65.7955 78.1662,66.18 78.1662,66.5806 78.1662,67.0292 78.0249,67.2375 77.9013,67.6061 77.8836,67.8784 78.2722,68.1988 78.8373,68.1988 78.9256,68.2149 79.1022,68.5514 79.2612,69.0481 79.3672,69.4326 79.4908,69.7851 79.4908,70.3619 79.4731,70.3779 79.4731,70.5221 79.3848,70.9708 79.2965,71.3393 79.1375,71.7559 78.9786,72.1884 78.696,72.7012 78.4664,73.0216 78.1309,73.5503 77.9013,73.9189 77.8306,74.1592 77.76,74.5598 77.548,74.704 78.802,74.688 78.749,74.3034 79.0493,73.7106 79.2788,73.1338 79.9853,73.278 80.5152,73.6785 80.7978,73.9029 80.6741,74.3996 80.5505,74.5598 80.8507,75.3128 80.7094,75.6493 80.7094,75.6653 81.1333,75.8736 81.7691,76.0178 82.2813,76.3062 83.0231,76.3383 83.6413,76.4023 84.3478,76.5946 84.4361,76.7228 84.6127,77.3798 84.7187,77.7643 85.4251,77.5079 85.3898,77.9726 85.8313,78.4373 86.1316,78.1007 86.5731,77.7803 87.0853,78.1328 87.4032,77.9406 87.8272,77.9406 88.304,78.1809 88.7985,78.9339 88.7985,79.2544 88.4806,79.8472 88.1097,79.8472 87.6152,79.9593 87.2973,80.2157 87.0147,80.8086 87.6505,81.3053 88.1803,81.7539 88.6749,82.3307 89.0634,82.8754 89.2754,83.4683 89.24,84.0451 89.6463,84.3335 90.6706,84.5258 90.653,84.013 91.0239,83.6606 91.5184,83.4523 92.3838,83.3562 92.7194,83.4362 92.9667,82.6832 92.2779,82.1384 91.5361,81.5616 91.7834,81.0008 91.9953,81.0008 93.1256,81.161 93.7438,81.5937 94.15,81.7379 94.8741,82.555 95.3863,82.9555 96.1811,83.0677 97.0465,83.0837 97.5764,83.0998 98.0002,82.9395 98.5124,83.5484 98.1592,83.8848 97.0995,84.3976 96.9405,85.0064 97.4351,84.9744 97.9296,85.1507 97.8766,86.0799 98.6537,86.4645 99.3426,86.1601 100.243,86.2883 100.861,86.4805 101.215,86.8811 101.974,87.4899 102.698,87.3938 103.228,87.7302 104.076,88.0828 103.882,88.8037 104.288,89.7811 104.57,90.2618 105.542,90.4861 105.206,91.1911 105.507,91.9121 105.489,92.1204 106.284,92.2806 106.337,92.8414 106.372,93.4984 107.184,93.6586 107.997,93.7387 108.368,93.8669 108.739,92.553 109.145,92.6973 109.569,91.8801 110.487,91.6557 110.858,92.0884 110.858,92.7132 111.07,93.4343 111.671,94.0431 112.501,94.1873 112.783,94.1392 112.695,94.652 112.695,95.0846 112.271,95.5653 111.935,96.0459 112.942,96.4946 113.454,96.142 113.914,95.8537 114.055,95.8537 114.337,96.7028 114.355,96.6708 114.726,96.5587 114.726,96.3984 114.779,95.9658 114.797,95.7415 114.92,95.4852 115.115,95.1006 115.485,94.9404 115.962,94.8603 116.104,94.8923 116.227,94.9083 116.474,94.6359 116.669,94.4116 116.951,94.3956 117.216,94.3796 117.622,94.4437 118.241,94.5719 118.753,94.4757 119.124,94.4437 119.265,94.5078 119.813,94.5078 119.76,94.9885 120.166,95.2127 120.678,95.3089 120.89,95.4691 121.455,95.7735 121.932,95.389 122.32,94.8603 122.179,94.4437 122.091,94.2354 122.391,94.2354 122.603,94.3636 123.151,94.668 123.716,94.5398 123.998,94.3315 124.352,94.2514 124.705,94.4437 125.199,94.8122 125.694,94.7 126.118,94.5398 126.489,94.5398 126.895,94.5879 127.425,94.8923 127.831,95.2288 128.237,95.6934 128.785,95.6453 128.838,95.5012 128.855,95.5172 129.279,95.9819 129.526,96.3824 129.791,96.783 129.756,97.0874 130.003,97.4239 130.162,97.2476 130.463,97.2797 130.727,97.504 131.116,97.7764 131.752,97.9206 131.911,98.0647 132.9,98.5455 133.553,98.5455 133.801,98.6576 133.818,98.6416 133.977,98.8499 134.33,99.0742 134.719,99.2023 135.125,99.2825 135.443,99.3466 135.673,99.3946 135.991,99.2825 136.132,99.0581 135.955,98.5775 135.796,98.3051 135.408,98.0968 134.984,97.9045 134.684,97.6161 134.701,97.4399 134.807,97.1194 135.019,96.6227 135.108,96.3504 135.108,95.9979 135.125,95.7575 134.542,94.5238 134.542,94.0431 134.595,93.7387 134.701,93.4503 135.531,92.7453 136.697,91.2552 137.828,89.8452 139.364,88.4352 140.583,87.3457 141.519,86.6728 142.278,85.7755 142.861,85.1026 143.214,85.0225 143.62,84.9584 143.903,84.9744 144.345,84.9744 144.839,84.9904 145.086,84.75 145.104,84.4777 145.139,84.2534 145.281,84.0611 145.528,83.8047 145.863,83.6766 145.846,83.4843 145.687,82.7633 145.634,82.1224 145.44,81.5135 145.122,81.2091 144.857,80.9688 144.733,80.7285 144.927,80.5041 145.475,80.376 145.74,80.3919 146.164,80.3278 146.27,80.1036 146.146,79.7511 145.457,79.4947 145.033,78.998 144.716,78.6936 144.557,78.5654 144.468,78.1168 144.292,77.6681 144.133,77.2996 143.903,76.6908 143.603,76.3223 143.232,75.9377 142.879,75.6974 142.684,75.5051 142.596,75.2167 142.596,74.736 142.861,74.2874 143.002,73.8228 142.773,73.3421 142.596,72.8935 142.402,72.8294 142.084,72.6851 141.925,72.2686 141.819,72.0442 141.695,71.6277 141.96,70.8265 142.278,70.2337 142.508,70.0254 142.455,69.4486 142.525,69.2243 142.684,68.7917 142.773,68.1668 142.914,67.9105 143.197,67.558 142.896,67.2054 142.684,66.9331 142.402,66.5966 142.367,66.3242 142.049,66.196 141.801,66.18 141.501,65.9878 140.795,65.6513 140,65.2187 139.611,65.0264 139.806,64.2253 140.035,63.8888 140.424,63.3761 140.865,62.6391 141.66,61.87 142.296,61.4374 142.985,61.2932 143.585,61.165 144.256,60.7804 144.733,60.492 145.157,60.1716 145.351,59.8992 145.493,59.3544 145.404,58.8898 145.051,58.1528 145.051,56.6787 144.839,55.3168 144.044,53.346 143.497,51.856 143.197,50.6062 142.649,48.5713 142.455,46.7608 142.437,46.7608 142.437,46.4404 142.596,45.9437 142.49,45.3668 142.296,44.79 141.678,44.1491 141.024,43.5563 140.3,43.1237 139.505,42.8513 138.834,42.2104 138.128,41.8739 136.962,41.7778 137.086,42.3867 135.62,42.3867 131.505,42.4187 128.873,42.3706 125.199,41.9701 121.437,41.5695 119.194,40.7363 118.4,39.9352 118.152,39.9673 117.887,40.1595 117.464,40.5601 116.686,40.8966 116.298,40.9126 115.556,41.1689 115.256,41.4413 114.885,41.7618 114.691,41.8098 114.408,41.6336 113.966,41.5535 113.631,41.3933 113.684,41.249 113.79,41.0248 114.602,40.8645 113.737,40.8966 113.048,40.9286 112.465,40.9927 111.847,40.8325 110.982,40.6722 110.099,40.48 110.01,40.2236 109.887,39.9032 109.392,39.7589 109.233,39.1982 109.127,38.5572 109.057,37.8202 108.703,37.0351 108.58,36.5705 108.756,36.2821 108.898,36.1219 109.216,36.234 109.586,36.5865 109.975,36.8589 110.47,37.1312 110.628,37.3235 110.982,37.5638 111.229,38.0285 111.529,38.1887 111.035,37.3876 110.54,37.1312 109.957,36.6826 109.445,36.25 109.039,35.9937 108.527,35.5611 108.156,35.3688 107.432,35.1605 "/>
  <line class="fil4 str1" x1="13.5681" y1="67.1814" x2="208.43" y2= "67.1814" />
  <line class="fil4 str1" x1="110.999" y1="112.633" x2="110.999" y2= "21.73" />
  <line class="fil4 str1" x1="18.3395" y1="53.095" x2="203.659" y2= "53.095" />
  <line class="fil4 str1" x1="31.5497" y1="40.8695" x2="190.449" y2= "40.8695" />
  <line class="fil4 str1" x1="50.0877" y1="31.7079" x2="172.725" y2= "32.0158" />
  <line class="fil4 str1" x1="67.2101" y1="26.5698" x2="154.789" y2= "26.5698" />
  <line class="fil4 str1" x1="18.3395" y1="81.2676" x2="203.659" y2= "81.2676" />
  <line class="fil4 str1" x1="31.5497" y1="93.4931" x2="190.449" y2= "93.4931" />
  <line class="fil4 str1" x1="50.0877" y1="102.655" x2="172.725" y2= "102.347" />
  <line class="fil4 str1" x1="67.2101" y1="107.793" x2="154.789" y2= "107.793" />
  <ellipse class="fil4 str1" cx="111.39" cy="67.1814" rx="28.1074" ry="45.4513"/>
  <ellipse class="fil4 str1" cx="110.999" cy="67.1814" rx="56.41" ry="45.4513"/>
  <ellipse class="fil4 str1" cx="110.999" cy="67.1815" rx="79.7645" ry="45.4513"/>
 </g>
</svg>
